M48
;DRILL file {KiCad 4.0.7} date 10/01/17 15:58:31
;FORMAT={-:-/ absolute / inch / decimal}
FMAT,2
INCH,TZ
T1C0.016
T2C0.039
T3C0.040
T4C0.059
T5C0.108
%
G90
G05
M72
T1
X4.4252Y-3.7264
X4.5531Y-3.7067
X4.75Y-2.6732
X4.75Y-2.752
X4.75Y-2.9094
X4.75Y-2.9882
X4.7598Y-2.7126
X4.7598Y-2.9488
X4.9449Y-3.0157
X5.311Y-3.4213
X5.4252Y-2.9055
X5.4252Y-2.9488
X5.4252Y-3.3228
X5.4252Y-3.3661
X5.4291Y-3.4213
X5.5472Y-2.8307
X5.6457Y-2.6614
X5.6654Y-2.8307
X5.689Y-2.6614
X5.7323Y-3.5787
X5.7756Y-2.6614
X5.7756Y-3.5787
X5.8189Y-3.5787
X5.8622Y-2.6614
X5.8622Y-3.5787
X5.8819Y-2.8898
X5.9055Y-3.5787
X6.0984Y-3.5787
X6.1181Y-3.3583
X6.1417Y-3.5787
X6.1772Y-2.6614
X6.3346Y-3.7756
X6.3517Y-3.4351
X6.3543Y-2.6614
X6.3543Y-3.3622
X6.3661Y-3.5787
X6.3976Y-2.6614
X6.4073Y-2.6066
X6.4331Y-2.8898
X6.4921Y-3.5
X6.4921Y-3.5787
X6.5039Y-2.6084
X6.5315Y-3.7756
X6.5709Y-2.9094
X6.5709Y-2.9961
X6.5709Y-3.2756
X6.5709Y-3.3189
X6.7972Y-2.5846
T2
X4.4055Y-2.7244
X4.4055Y-2.8244
X4.4055Y-2.9244
X4.4055Y-3.0244
X4.4055Y-3.1244
X4.4055Y-3.2244
X4.563Y-3.8543
X4.663Y-3.8543
X4.878Y-3.8543
X4.978Y-3.8543
X5.1929Y-3.8543
X5.2929Y-3.8543
X5.5079Y-3.8543
X5.6079Y-3.8543
X5.8228Y-3.8543
X5.9228Y-3.8543
T3
X4.661Y-2.4492
X4.661Y-2.5492
X4.761Y-2.4492
X4.761Y-2.5492
X4.861Y-2.4492
X4.861Y-2.5492
X4.961Y-2.4492
X4.961Y-2.5492
X5.061Y-2.4492
X5.061Y-2.5492
X5.161Y-2.4492
X5.161Y-2.5492
X5.261Y-2.4492
X5.261Y-2.5492
X5.361Y-2.4492
X5.361Y-2.5492
X5.461Y-2.4492
X5.461Y-2.5492
X5.561Y-2.4492
X5.561Y-2.5492
X5.661Y-2.4492
X5.661Y-2.5492
X5.761Y-2.4492
X5.761Y-2.5492
X5.861Y-2.4492
X5.861Y-2.5492
X5.961Y-2.4492
X5.961Y-2.5492
X6.061Y-2.4492
X6.061Y-2.5492
X6.161Y-2.4492
X6.161Y-2.5492
X6.261Y-2.4492
X6.261Y-2.5492
X6.361Y-2.4492
X6.361Y-2.5492
X6.461Y-2.4492
X6.461Y-2.5492
X6.561Y-2.4492
X6.561Y-2.5492
T4
X6.3298Y-3.6801
X6.3298Y-3.8801
X6.4298Y-3.7801
X6.5298Y-3.6801
X6.5298Y-3.8801
X6.6298Y-2.8551
X6.6298Y-3.0551
X6.7298Y-2.9551
X6.8298Y-2.8551
X6.8298Y-3.0551
T5
X4.4685Y-2.5
X4.4685Y-3.4055
X6.752Y-2.5
X6.752Y-3.4055
T0
M30
