G04 #@! TF.FileFunction,Copper,L3,Inr,Plane*
%FSLAX46Y46*%
G04 Gerber Fmt 4.6, Leading zero omitted, Abs format (unit mm)*
G04 Created by KiCad (PCBNEW 4.0.7) date 10/01/17 15:58:34*
%MOMM*%
%LPD*%
G01*
G04 APERTURE LIST*
%ADD10C,0.100000*%
%ADD11C,3.500000*%
%ADD12R,1.727200X1.727200*%
%ADD13O,1.727200X1.727200*%
%ADD14C,1.524000*%
%ADD15R,1.700000X1.700000*%
%ADD16O,1.700000X1.700000*%
%ADD17C,0.600000*%
%ADD18C,0.200000*%
G04 APERTURE END LIST*
D10*
D11*
X113500000Y-86500000D03*
X113500000Y-63500000D03*
X171500000Y-63500000D03*
X171500000Y-86500000D03*
D12*
X118390000Y-64750000D03*
D13*
X118390000Y-62210000D03*
X120930000Y-64750000D03*
X120930000Y-62210000D03*
X123470000Y-64750000D03*
X123470000Y-62210000D03*
X126010000Y-64750000D03*
X126010000Y-62210000D03*
X128550000Y-64750000D03*
X128550000Y-62210000D03*
X131090000Y-64750000D03*
X131090000Y-62210000D03*
X133630000Y-64750000D03*
X133630000Y-62210000D03*
X136170000Y-64750000D03*
X136170000Y-62210000D03*
X138710000Y-64750000D03*
X138710000Y-62210000D03*
X141250000Y-64750000D03*
X141250000Y-62210000D03*
X143790000Y-64750000D03*
X143790000Y-62210000D03*
X146330000Y-64750000D03*
X146330000Y-62210000D03*
X148870000Y-64750000D03*
X148870000Y-62210000D03*
X151410000Y-64750000D03*
X151410000Y-62210000D03*
X153950000Y-64750000D03*
X153950000Y-62210000D03*
X156490000Y-64750000D03*
X156490000Y-62210000D03*
X159030000Y-64750000D03*
X159030000Y-62210000D03*
X161570000Y-64750000D03*
X161570000Y-62210000D03*
X164110000Y-64750000D03*
X164110000Y-62210000D03*
X166650000Y-64750000D03*
X166650000Y-62210000D03*
D14*
X160778000Y-98555000D03*
X160778000Y-93475000D03*
X165858000Y-98555000D03*
X165858000Y-93475000D03*
X163318000Y-96015000D03*
X173478000Y-77600000D03*
X168398000Y-77600000D03*
X173478000Y-72520000D03*
X168398000Y-72520000D03*
X170938000Y-75060000D03*
D15*
X115900000Y-97900000D03*
D16*
X118440000Y-97900000D03*
D15*
X111900000Y-81900000D03*
D16*
X111900000Y-79360000D03*
X111900000Y-76820000D03*
X111900000Y-74280000D03*
X111900000Y-71740000D03*
X111900000Y-69200000D03*
D15*
X147900000Y-97900000D03*
D16*
X150440000Y-97900000D03*
D15*
X123900000Y-97900000D03*
D16*
X126440000Y-97900000D03*
D15*
X131900000Y-97900000D03*
D16*
X134440000Y-97900000D03*
D15*
X139900000Y-97900000D03*
D16*
X142440000Y-97900000D03*
D17*
X112400000Y-94650000D03*
X172650000Y-65650000D03*
X165900000Y-95900000D03*
X160900000Y-95900000D03*
X161333000Y-87251000D03*
X164900000Y-88900000D03*
X164900000Y-90900000D03*
X161400000Y-85400000D03*
X163400000Y-73400000D03*
X149400000Y-73400000D03*
X125600000Y-76600000D03*
X143400000Y-67600000D03*
X137800000Y-74900000D03*
X137800000Y-84400000D03*
X145600000Y-90900000D03*
X146700000Y-90900000D03*
X148900000Y-90900000D03*
X150000000Y-90900000D03*
X156000000Y-90900000D03*
X161700000Y-90900000D03*
X166900000Y-84300000D03*
X166900000Y-83200000D03*
X166900000Y-76100000D03*
X166900000Y-73900000D03*
X162500000Y-67600000D03*
X161400000Y-67600000D03*
X156900000Y-67600000D03*
X148900000Y-67600000D03*
X146700000Y-67600000D03*
X120650000Y-75900000D03*
X120650000Y-73900000D03*
X120900000Y-74900000D03*
X120650000Y-69900000D03*
X120650000Y-67900000D03*
X120900000Y-68900000D03*
X115650000Y-94150000D03*
X155400000Y-85300000D03*
X144500000Y-67600000D03*
X137800000Y-73800000D03*
X137800000Y-85500000D03*
X147800000Y-90900000D03*
X154900000Y-90900000D03*
X134900000Y-86900000D03*
X137900000Y-86900000D03*
X143900000Y-71900000D03*
X140900000Y-71900000D03*
X165199809Y-66253720D03*
X162745761Y-66208483D03*
D18*
G36*
X172673566Y-60666764D02*
X173668466Y-61331534D01*
X174333237Y-62326435D01*
X174575000Y-63541860D01*
X174575000Y-72263013D01*
X174421257Y-71890926D01*
X174108720Y-71577842D01*
X173700161Y-71408194D01*
X173257780Y-71407808D01*
X172848926Y-71576743D01*
X172535842Y-71889280D01*
X172366194Y-72297839D01*
X172365808Y-72740220D01*
X172534743Y-73149074D01*
X172847280Y-73462158D01*
X173255839Y-73631806D01*
X173698220Y-73632192D01*
X174107074Y-73463257D01*
X174420158Y-73150720D01*
X174575000Y-72777818D01*
X174575000Y-77343013D01*
X174421257Y-76970926D01*
X174108720Y-76657842D01*
X173700161Y-76488194D01*
X173257780Y-76487808D01*
X172848926Y-76656743D01*
X172535842Y-76969280D01*
X172366194Y-77377839D01*
X172365808Y-77820220D01*
X172534743Y-78229074D01*
X172847280Y-78542158D01*
X173255839Y-78711806D01*
X173698220Y-78712192D01*
X174107074Y-78543257D01*
X174420158Y-78230720D01*
X174575000Y-77857818D01*
X174575000Y-96458140D01*
X174333237Y-97673565D01*
X173668466Y-98668466D01*
X172673566Y-99333236D01*
X171458140Y-99575000D01*
X166301342Y-99575000D01*
X166487074Y-99498257D01*
X166800158Y-99185720D01*
X166969806Y-98777161D01*
X166970192Y-98334780D01*
X166801257Y-97925926D01*
X166488720Y-97612842D01*
X166080161Y-97443194D01*
X165637780Y-97442808D01*
X165228926Y-97611743D01*
X164915842Y-97924280D01*
X164746194Y-98332839D01*
X164745808Y-98775220D01*
X164914743Y-99184074D01*
X165227280Y-99497158D01*
X165414745Y-99575000D01*
X161221342Y-99575000D01*
X161407074Y-99498257D01*
X161720158Y-99185720D01*
X161889806Y-98777161D01*
X161890192Y-98334780D01*
X161721257Y-97925926D01*
X161408720Y-97612842D01*
X161000161Y-97443194D01*
X160557780Y-97442808D01*
X160148926Y-97611743D01*
X159835842Y-97924280D01*
X159666194Y-98332839D01*
X159665808Y-98775220D01*
X159834743Y-99184074D01*
X160147280Y-99497158D01*
X160334745Y-99575000D01*
X113541860Y-99575000D01*
X112326435Y-99333237D01*
X111331534Y-98668466D01*
X110666764Y-97673566D01*
X110542729Y-97050000D01*
X114693144Y-97050000D01*
X114693144Y-98750000D01*
X114717549Y-98879702D01*
X114794203Y-98998825D01*
X114911163Y-99078741D01*
X115050000Y-99106856D01*
X116750000Y-99106856D01*
X116879702Y-99082451D01*
X116998825Y-99005797D01*
X117078741Y-98888837D01*
X117106856Y-98750000D01*
X117106856Y-97876491D01*
X117240000Y-97876491D01*
X117240000Y-97923509D01*
X117331345Y-98382729D01*
X117591472Y-98772037D01*
X117980780Y-99032164D01*
X118440000Y-99123509D01*
X118899220Y-99032164D01*
X119288528Y-98772037D01*
X119548655Y-98382729D01*
X119640000Y-97923509D01*
X119640000Y-97876491D01*
X119548655Y-97417271D01*
X119303253Y-97050000D01*
X122693144Y-97050000D01*
X122693144Y-98750000D01*
X122717549Y-98879702D01*
X122794203Y-98998825D01*
X122911163Y-99078741D01*
X123050000Y-99106856D01*
X124750000Y-99106856D01*
X124879702Y-99082451D01*
X124998825Y-99005797D01*
X125078741Y-98888837D01*
X125106856Y-98750000D01*
X125106856Y-97876491D01*
X125240000Y-97876491D01*
X125240000Y-97923509D01*
X125331345Y-98382729D01*
X125591472Y-98772037D01*
X125980780Y-99032164D01*
X126440000Y-99123509D01*
X126899220Y-99032164D01*
X127288528Y-98772037D01*
X127548655Y-98382729D01*
X127640000Y-97923509D01*
X127640000Y-97876491D01*
X127548655Y-97417271D01*
X127303253Y-97050000D01*
X130693144Y-97050000D01*
X130693144Y-98750000D01*
X130717549Y-98879702D01*
X130794203Y-98998825D01*
X130911163Y-99078741D01*
X131050000Y-99106856D01*
X132750000Y-99106856D01*
X132879702Y-99082451D01*
X132998825Y-99005797D01*
X133078741Y-98888837D01*
X133106856Y-98750000D01*
X133106856Y-97876491D01*
X133240000Y-97876491D01*
X133240000Y-97923509D01*
X133331345Y-98382729D01*
X133591472Y-98772037D01*
X133980780Y-99032164D01*
X134440000Y-99123509D01*
X134899220Y-99032164D01*
X135288528Y-98772037D01*
X135548655Y-98382729D01*
X135640000Y-97923509D01*
X135640000Y-97876491D01*
X135548655Y-97417271D01*
X135303253Y-97050000D01*
X138693144Y-97050000D01*
X138693144Y-98750000D01*
X138717549Y-98879702D01*
X138794203Y-98998825D01*
X138911163Y-99078741D01*
X139050000Y-99106856D01*
X140750000Y-99106856D01*
X140879702Y-99082451D01*
X140998825Y-99005797D01*
X141078741Y-98888837D01*
X141106856Y-98750000D01*
X141106856Y-97876491D01*
X141240000Y-97876491D01*
X141240000Y-97923509D01*
X141331345Y-98382729D01*
X141591472Y-98772037D01*
X141980780Y-99032164D01*
X142440000Y-99123509D01*
X142899220Y-99032164D01*
X143288528Y-98772037D01*
X143548655Y-98382729D01*
X143640000Y-97923509D01*
X143640000Y-97876491D01*
X143548655Y-97417271D01*
X143303253Y-97050000D01*
X146693144Y-97050000D01*
X146693144Y-98750000D01*
X146717549Y-98879702D01*
X146794203Y-98998825D01*
X146911163Y-99078741D01*
X147050000Y-99106856D01*
X148750000Y-99106856D01*
X148879702Y-99082451D01*
X148998825Y-99005797D01*
X149078741Y-98888837D01*
X149106856Y-98750000D01*
X149106856Y-97876491D01*
X149240000Y-97876491D01*
X149240000Y-97923509D01*
X149331345Y-98382729D01*
X149591472Y-98772037D01*
X149980780Y-99032164D01*
X150440000Y-99123509D01*
X150899220Y-99032164D01*
X151288528Y-98772037D01*
X151548655Y-98382729D01*
X151640000Y-97923509D01*
X151640000Y-97876491D01*
X151548655Y-97417271D01*
X151288528Y-97027963D01*
X150899220Y-96767836D01*
X150440000Y-96676491D01*
X149980780Y-96767836D01*
X149591472Y-97027963D01*
X149331345Y-97417271D01*
X149240000Y-97876491D01*
X149106856Y-97876491D01*
X149106856Y-97050000D01*
X149082451Y-96920298D01*
X149005797Y-96801175D01*
X148888837Y-96721259D01*
X148750000Y-96693144D01*
X147050000Y-96693144D01*
X146920298Y-96717549D01*
X146801175Y-96794203D01*
X146721259Y-96911163D01*
X146693144Y-97050000D01*
X143303253Y-97050000D01*
X143288528Y-97027963D01*
X142899220Y-96767836D01*
X142440000Y-96676491D01*
X141980780Y-96767836D01*
X141591472Y-97027963D01*
X141331345Y-97417271D01*
X141240000Y-97876491D01*
X141106856Y-97876491D01*
X141106856Y-97050000D01*
X141082451Y-96920298D01*
X141005797Y-96801175D01*
X140888837Y-96721259D01*
X140750000Y-96693144D01*
X139050000Y-96693144D01*
X138920298Y-96717549D01*
X138801175Y-96794203D01*
X138721259Y-96911163D01*
X138693144Y-97050000D01*
X135303253Y-97050000D01*
X135288528Y-97027963D01*
X134899220Y-96767836D01*
X134440000Y-96676491D01*
X133980780Y-96767836D01*
X133591472Y-97027963D01*
X133331345Y-97417271D01*
X133240000Y-97876491D01*
X133106856Y-97876491D01*
X133106856Y-97050000D01*
X133082451Y-96920298D01*
X133005797Y-96801175D01*
X132888837Y-96721259D01*
X132750000Y-96693144D01*
X131050000Y-96693144D01*
X130920298Y-96717549D01*
X130801175Y-96794203D01*
X130721259Y-96911163D01*
X130693144Y-97050000D01*
X127303253Y-97050000D01*
X127288528Y-97027963D01*
X126899220Y-96767836D01*
X126440000Y-96676491D01*
X125980780Y-96767836D01*
X125591472Y-97027963D01*
X125331345Y-97417271D01*
X125240000Y-97876491D01*
X125106856Y-97876491D01*
X125106856Y-97050000D01*
X125082451Y-96920298D01*
X125005797Y-96801175D01*
X124888837Y-96721259D01*
X124750000Y-96693144D01*
X123050000Y-96693144D01*
X122920298Y-96717549D01*
X122801175Y-96794203D01*
X122721259Y-96911163D01*
X122693144Y-97050000D01*
X119303253Y-97050000D01*
X119288528Y-97027963D01*
X118899220Y-96767836D01*
X118440000Y-96676491D01*
X117980780Y-96767836D01*
X117591472Y-97027963D01*
X117331345Y-97417271D01*
X117240000Y-97876491D01*
X117106856Y-97876491D01*
X117106856Y-97050000D01*
X117082451Y-96920298D01*
X117005797Y-96801175D01*
X116888837Y-96721259D01*
X116750000Y-96693144D01*
X115050000Y-96693144D01*
X114920298Y-96717549D01*
X114801175Y-96794203D01*
X114721259Y-96911163D01*
X114693144Y-97050000D01*
X110542729Y-97050000D01*
X110425000Y-96458140D01*
X110425000Y-96028726D01*
X160249888Y-96028726D01*
X160348636Y-96267714D01*
X160531324Y-96450722D01*
X160770140Y-96549887D01*
X161028726Y-96550112D01*
X161267714Y-96451364D01*
X161450722Y-96268676D01*
X161464614Y-96235220D01*
X162205808Y-96235220D01*
X162374743Y-96644074D01*
X162687280Y-96957158D01*
X163095839Y-97126806D01*
X163538220Y-97127192D01*
X163947074Y-96958257D01*
X164260158Y-96645720D01*
X164429806Y-96237161D01*
X164429987Y-96028726D01*
X165249888Y-96028726D01*
X165348636Y-96267714D01*
X165531324Y-96450722D01*
X165770140Y-96549887D01*
X166028726Y-96550112D01*
X166267714Y-96451364D01*
X166450722Y-96268676D01*
X166549887Y-96029860D01*
X166550112Y-95771274D01*
X166451364Y-95532286D01*
X166268676Y-95349278D01*
X166029860Y-95250113D01*
X165771274Y-95249888D01*
X165532286Y-95348636D01*
X165349278Y-95531324D01*
X165250113Y-95770140D01*
X165249888Y-96028726D01*
X164429987Y-96028726D01*
X164430192Y-95794780D01*
X164261257Y-95385926D01*
X163948720Y-95072842D01*
X163540161Y-94903194D01*
X163097780Y-94902808D01*
X162688926Y-95071743D01*
X162375842Y-95384280D01*
X162206194Y-95792839D01*
X162205808Y-96235220D01*
X161464614Y-96235220D01*
X161549887Y-96029860D01*
X161550112Y-95771274D01*
X161451364Y-95532286D01*
X161268676Y-95349278D01*
X161029860Y-95250113D01*
X160771274Y-95249888D01*
X160532286Y-95348636D01*
X160349278Y-95531324D01*
X160250113Y-95770140D01*
X160249888Y-96028726D01*
X110425000Y-96028726D01*
X110425000Y-94778726D01*
X111749888Y-94778726D01*
X111848636Y-95017714D01*
X112031324Y-95200722D01*
X112270140Y-95299887D01*
X112528726Y-95300112D01*
X112767714Y-95201364D01*
X112950722Y-95018676D01*
X113049887Y-94779860D01*
X113050112Y-94521274D01*
X112951364Y-94282286D01*
X112768676Y-94099278D01*
X112529860Y-94000113D01*
X112271274Y-93999888D01*
X112032286Y-94098636D01*
X111849278Y-94281324D01*
X111750113Y-94520140D01*
X111749888Y-94778726D01*
X110425000Y-94778726D01*
X110425000Y-93695220D01*
X159665808Y-93695220D01*
X159834743Y-94104074D01*
X160147280Y-94417158D01*
X160555839Y-94586806D01*
X160998220Y-94587192D01*
X161407074Y-94418257D01*
X161720158Y-94105720D01*
X161889806Y-93697161D01*
X161889807Y-93695220D01*
X164745808Y-93695220D01*
X164914743Y-94104074D01*
X165227280Y-94417158D01*
X165635839Y-94586806D01*
X166078220Y-94587192D01*
X166487074Y-94418257D01*
X166800158Y-94105720D01*
X166969806Y-93697161D01*
X166970192Y-93254780D01*
X166801257Y-92845926D01*
X166488720Y-92532842D01*
X166080161Y-92363194D01*
X165637780Y-92362808D01*
X165228926Y-92531743D01*
X164915842Y-92844280D01*
X164746194Y-93252839D01*
X164745808Y-93695220D01*
X161889807Y-93695220D01*
X161890192Y-93254780D01*
X161721257Y-92845926D01*
X161408720Y-92532842D01*
X161000161Y-92363194D01*
X160557780Y-92362808D01*
X160148926Y-92531743D01*
X159835842Y-92844280D01*
X159666194Y-93252839D01*
X159665808Y-93695220D01*
X110425000Y-93695220D01*
X110425000Y-91028726D01*
X144949888Y-91028726D01*
X145048636Y-91267714D01*
X145231324Y-91450722D01*
X145470140Y-91549887D01*
X145728726Y-91550112D01*
X145967714Y-91451364D01*
X146150158Y-91269239D01*
X146331324Y-91450722D01*
X146570140Y-91549887D01*
X146828726Y-91550112D01*
X147067714Y-91451364D01*
X147250722Y-91268676D01*
X147349887Y-91029860D01*
X147349887Y-91028726D01*
X148249888Y-91028726D01*
X148348636Y-91267714D01*
X148531324Y-91450722D01*
X148770140Y-91549887D01*
X149028726Y-91550112D01*
X149267714Y-91451364D01*
X149450158Y-91269239D01*
X149631324Y-91450722D01*
X149870140Y-91549887D01*
X150128726Y-91550112D01*
X150367714Y-91451364D01*
X150550722Y-91268676D01*
X150649887Y-91029860D01*
X150649887Y-91028726D01*
X155349888Y-91028726D01*
X155448636Y-91267714D01*
X155631324Y-91450722D01*
X155870140Y-91549887D01*
X156128726Y-91550112D01*
X156367714Y-91451364D01*
X156550722Y-91268676D01*
X156649887Y-91029860D01*
X156649887Y-91028726D01*
X161049888Y-91028726D01*
X161148636Y-91267714D01*
X161331324Y-91450722D01*
X161570140Y-91549887D01*
X161828726Y-91550112D01*
X162067714Y-91451364D01*
X162250722Y-91268676D01*
X162349887Y-91029860D01*
X162349887Y-91028726D01*
X164249888Y-91028726D01*
X164348636Y-91267714D01*
X164531324Y-91450722D01*
X164770140Y-91549887D01*
X165028726Y-91550112D01*
X165267714Y-91451364D01*
X165450722Y-91268676D01*
X165549887Y-91029860D01*
X165550112Y-90771274D01*
X165451364Y-90532286D01*
X165268676Y-90349278D01*
X165029860Y-90250113D01*
X164771274Y-90249888D01*
X164532286Y-90348636D01*
X164349278Y-90531324D01*
X164250113Y-90770140D01*
X164249888Y-91028726D01*
X162349887Y-91028726D01*
X162350112Y-90771274D01*
X162251364Y-90532286D01*
X162068676Y-90349278D01*
X161829860Y-90250113D01*
X161571274Y-90249888D01*
X161332286Y-90348636D01*
X161149278Y-90531324D01*
X161050113Y-90770140D01*
X161049888Y-91028726D01*
X156649887Y-91028726D01*
X156650112Y-90771274D01*
X156551364Y-90532286D01*
X156368676Y-90349278D01*
X156129860Y-90250113D01*
X155871274Y-90249888D01*
X155632286Y-90348636D01*
X155449278Y-90531324D01*
X155350113Y-90770140D01*
X155349888Y-91028726D01*
X150649887Y-91028726D01*
X150650112Y-90771274D01*
X150551364Y-90532286D01*
X150368676Y-90349278D01*
X150129860Y-90250113D01*
X149871274Y-90249888D01*
X149632286Y-90348636D01*
X149449842Y-90530761D01*
X149268676Y-90349278D01*
X149029860Y-90250113D01*
X148771274Y-90249888D01*
X148532286Y-90348636D01*
X148349278Y-90531324D01*
X148250113Y-90770140D01*
X148249888Y-91028726D01*
X147349887Y-91028726D01*
X147350112Y-90771274D01*
X147251364Y-90532286D01*
X147068676Y-90349278D01*
X146829860Y-90250113D01*
X146571274Y-90249888D01*
X146332286Y-90348636D01*
X146149842Y-90530761D01*
X145968676Y-90349278D01*
X145729860Y-90250113D01*
X145471274Y-90249888D01*
X145232286Y-90348636D01*
X145049278Y-90531324D01*
X144950113Y-90770140D01*
X144949888Y-91028726D01*
X110425000Y-91028726D01*
X110425000Y-89028726D01*
X164249888Y-89028726D01*
X164348636Y-89267714D01*
X164531324Y-89450722D01*
X164770140Y-89549887D01*
X165028726Y-89550112D01*
X165267714Y-89451364D01*
X165450722Y-89268676D01*
X165549887Y-89029860D01*
X165550112Y-88771274D01*
X165451364Y-88532286D01*
X165268676Y-88349278D01*
X165029860Y-88250113D01*
X164771274Y-88249888D01*
X164532286Y-88348636D01*
X164349278Y-88531324D01*
X164250113Y-88770140D01*
X164249888Y-89028726D01*
X110425000Y-89028726D01*
X110425000Y-86915883D01*
X111399637Y-86915883D01*
X111718669Y-87688000D01*
X112308893Y-88279255D01*
X113080452Y-88599634D01*
X113915883Y-88600363D01*
X114688000Y-88281331D01*
X115279255Y-87691107D01*
X115554299Y-87028726D01*
X134249888Y-87028726D01*
X134348636Y-87267714D01*
X134531324Y-87450722D01*
X134770140Y-87549887D01*
X135028726Y-87550112D01*
X135267714Y-87451364D01*
X135450722Y-87268676D01*
X135549887Y-87029860D01*
X135549887Y-87028726D01*
X137249888Y-87028726D01*
X137348636Y-87267714D01*
X137531324Y-87450722D01*
X137770140Y-87549887D01*
X138028726Y-87550112D01*
X138267714Y-87451364D01*
X138339477Y-87379726D01*
X160682888Y-87379726D01*
X160781636Y-87618714D01*
X160964324Y-87801722D01*
X161203140Y-87900887D01*
X161461726Y-87901112D01*
X161700714Y-87802364D01*
X161883722Y-87619676D01*
X161982887Y-87380860D01*
X161983112Y-87122274D01*
X161897833Y-86915883D01*
X169399637Y-86915883D01*
X169718669Y-87688000D01*
X170308893Y-88279255D01*
X171080452Y-88599634D01*
X171915883Y-88600363D01*
X172688000Y-88281331D01*
X173279255Y-87691107D01*
X173599634Y-86919548D01*
X173600363Y-86084117D01*
X173281331Y-85312000D01*
X172691107Y-84720745D01*
X171919548Y-84400366D01*
X171084117Y-84399637D01*
X170312000Y-84718669D01*
X169720745Y-85308893D01*
X169400366Y-86080452D01*
X169399637Y-86915883D01*
X161897833Y-86915883D01*
X161884364Y-86883286D01*
X161701676Y-86700278D01*
X161462860Y-86601113D01*
X161204274Y-86600888D01*
X160965286Y-86699636D01*
X160782278Y-86882324D01*
X160683113Y-87121140D01*
X160682888Y-87379726D01*
X138339477Y-87379726D01*
X138450722Y-87268676D01*
X138549887Y-87029860D01*
X138550112Y-86771274D01*
X138451364Y-86532286D01*
X138268676Y-86349278D01*
X138029860Y-86250113D01*
X137771274Y-86249888D01*
X137532286Y-86348636D01*
X137349278Y-86531324D01*
X137250113Y-86770140D01*
X137249888Y-87028726D01*
X135549887Y-87028726D01*
X135550112Y-86771274D01*
X135451364Y-86532286D01*
X135268676Y-86349278D01*
X135029860Y-86250113D01*
X134771274Y-86249888D01*
X134532286Y-86348636D01*
X134349278Y-86531324D01*
X134250113Y-86770140D01*
X134249888Y-87028726D01*
X115554299Y-87028726D01*
X115599634Y-86919548D01*
X115600363Y-86084117D01*
X115370881Y-85528726D01*
X160749888Y-85528726D01*
X160848636Y-85767714D01*
X161031324Y-85950722D01*
X161270140Y-86049887D01*
X161528726Y-86050112D01*
X161767714Y-85951364D01*
X161950722Y-85768676D01*
X162049887Y-85529860D01*
X162050112Y-85271274D01*
X161951364Y-85032286D01*
X161768676Y-84849278D01*
X161529860Y-84750113D01*
X161271274Y-84749888D01*
X161032286Y-84848636D01*
X160849278Y-85031324D01*
X160750113Y-85270140D01*
X160749888Y-85528726D01*
X115370881Y-85528726D01*
X115281331Y-85312000D01*
X114691107Y-84720745D01*
X114228674Y-84528726D01*
X137149888Y-84528726D01*
X137248636Y-84767714D01*
X137431324Y-84950722D01*
X137670140Y-85049887D01*
X137928726Y-85050112D01*
X138167714Y-84951364D01*
X138350722Y-84768676D01*
X138449887Y-84529860D01*
X138450112Y-84271274D01*
X138351364Y-84032286D01*
X138168676Y-83849278D01*
X137929860Y-83750113D01*
X137671274Y-83749888D01*
X137432286Y-83848636D01*
X137249278Y-84031324D01*
X137150113Y-84270140D01*
X137149888Y-84528726D01*
X114228674Y-84528726D01*
X113919548Y-84400366D01*
X113084117Y-84399637D01*
X112312000Y-84718669D01*
X111720745Y-85308893D01*
X111400366Y-86080452D01*
X111399637Y-86915883D01*
X110425000Y-86915883D01*
X110425000Y-83328726D01*
X166249888Y-83328726D01*
X166348636Y-83567714D01*
X166530761Y-83750158D01*
X166349278Y-83931324D01*
X166250113Y-84170140D01*
X166249888Y-84428726D01*
X166348636Y-84667714D01*
X166531324Y-84850722D01*
X166770140Y-84949887D01*
X167028726Y-84950112D01*
X167267714Y-84851364D01*
X167450722Y-84668676D01*
X167549887Y-84429860D01*
X167550112Y-84171274D01*
X167451364Y-83932286D01*
X167269239Y-83749842D01*
X167450722Y-83568676D01*
X167549887Y-83329860D01*
X167550112Y-83071274D01*
X167451364Y-82832286D01*
X167268676Y-82649278D01*
X167029860Y-82550113D01*
X166771274Y-82549888D01*
X166532286Y-82648636D01*
X166349278Y-82831324D01*
X166250113Y-83070140D01*
X166249888Y-83328726D01*
X110425000Y-83328726D01*
X110425000Y-81050000D01*
X110693144Y-81050000D01*
X110693144Y-82750000D01*
X110717549Y-82879702D01*
X110794203Y-82998825D01*
X110911163Y-83078741D01*
X111050000Y-83106856D01*
X112750000Y-83106856D01*
X112879702Y-83082451D01*
X112998825Y-83005797D01*
X113078741Y-82888837D01*
X113106856Y-82750000D01*
X113106856Y-81050000D01*
X113082451Y-80920298D01*
X113005797Y-80801175D01*
X112888837Y-80721259D01*
X112750000Y-80693144D01*
X111050000Y-80693144D01*
X110920298Y-80717549D01*
X110801175Y-80794203D01*
X110721259Y-80911163D01*
X110693144Y-81050000D01*
X110425000Y-81050000D01*
X110425000Y-76820000D01*
X110676491Y-76820000D01*
X110767836Y-77279220D01*
X111027963Y-77668528D01*
X111417271Y-77928655D01*
X111876491Y-78020000D01*
X111923509Y-78020000D01*
X112382729Y-77928655D01*
X112545013Y-77820220D01*
X167285808Y-77820220D01*
X167454743Y-78229074D01*
X167767280Y-78542158D01*
X168175839Y-78711806D01*
X168618220Y-78712192D01*
X169027074Y-78543257D01*
X169340158Y-78230720D01*
X169509806Y-77822161D01*
X169510192Y-77379780D01*
X169341257Y-76970926D01*
X169028720Y-76657842D01*
X168620161Y-76488194D01*
X168177780Y-76487808D01*
X167768926Y-76656743D01*
X167455842Y-76969280D01*
X167286194Y-77377839D01*
X167285808Y-77820220D01*
X112545013Y-77820220D01*
X112772037Y-77668528D01*
X113032164Y-77279220D01*
X113123509Y-76820000D01*
X113105354Y-76728726D01*
X124949888Y-76728726D01*
X125048636Y-76967714D01*
X125231324Y-77150722D01*
X125470140Y-77249887D01*
X125728726Y-77250112D01*
X125967714Y-77151364D01*
X126150722Y-76968676D01*
X126249887Y-76729860D01*
X126250112Y-76471274D01*
X126151364Y-76232286D01*
X126147811Y-76228726D01*
X166249888Y-76228726D01*
X166348636Y-76467714D01*
X166531324Y-76650722D01*
X166770140Y-76749887D01*
X167028726Y-76750112D01*
X167267714Y-76651364D01*
X167450722Y-76468676D01*
X167549887Y-76229860D01*
X167550112Y-75971274D01*
X167451364Y-75732286D01*
X167268676Y-75549278D01*
X167029860Y-75450113D01*
X166771274Y-75449888D01*
X166532286Y-75548636D01*
X166349278Y-75731324D01*
X166250113Y-75970140D01*
X166249888Y-76228726D01*
X126147811Y-76228726D01*
X125968676Y-76049278D01*
X125729860Y-75950113D01*
X125471274Y-75949888D01*
X125232286Y-76048636D01*
X125049278Y-76231324D01*
X124950113Y-76470140D01*
X124949888Y-76728726D01*
X113105354Y-76728726D01*
X113032164Y-76360780D01*
X112772037Y-75971472D01*
X112382729Y-75711345D01*
X111923509Y-75620000D01*
X111876491Y-75620000D01*
X111417271Y-75711345D01*
X111027963Y-75971472D01*
X110767836Y-76360780D01*
X110676491Y-76820000D01*
X110425000Y-76820000D01*
X110425000Y-74280000D01*
X110676491Y-74280000D01*
X110767836Y-74739220D01*
X111027963Y-75128528D01*
X111417271Y-75388655D01*
X111876491Y-75480000D01*
X111923509Y-75480000D01*
X112382729Y-75388655D01*
X112772037Y-75128528D01*
X113032164Y-74739220D01*
X113123509Y-74280000D01*
X113073528Y-74028726D01*
X119999888Y-74028726D01*
X120098636Y-74267714D01*
X120281324Y-74450722D01*
X120386339Y-74494328D01*
X120349278Y-74531324D01*
X120250113Y-74770140D01*
X120249888Y-75028726D01*
X120348636Y-75267714D01*
X120386451Y-75305596D01*
X120282286Y-75348636D01*
X120099278Y-75531324D01*
X120000113Y-75770140D01*
X119999888Y-76028726D01*
X120098636Y-76267714D01*
X120281324Y-76450722D01*
X120520140Y-76549887D01*
X120778726Y-76550112D01*
X121017714Y-76451364D01*
X121200722Y-76268676D01*
X121299887Y-76029860D01*
X121300112Y-75771274D01*
X121201364Y-75532286D01*
X121163549Y-75494404D01*
X121267714Y-75451364D01*
X121450722Y-75268676D01*
X121549887Y-75029860D01*
X121549887Y-75028726D01*
X137149888Y-75028726D01*
X137248636Y-75267714D01*
X137431324Y-75450722D01*
X137670140Y-75549887D01*
X137928726Y-75550112D01*
X138167714Y-75451364D01*
X138339157Y-75280220D01*
X169825808Y-75280220D01*
X169994743Y-75689074D01*
X170307280Y-76002158D01*
X170715839Y-76171806D01*
X171158220Y-76172192D01*
X171567074Y-76003257D01*
X171880158Y-75690720D01*
X172049806Y-75282161D01*
X172050192Y-74839780D01*
X171881257Y-74430926D01*
X171568720Y-74117842D01*
X171160161Y-73948194D01*
X170717780Y-73947808D01*
X170308926Y-74116743D01*
X169995842Y-74429280D01*
X169826194Y-74837839D01*
X169825808Y-75280220D01*
X138339157Y-75280220D01*
X138350722Y-75268676D01*
X138449887Y-75029860D01*
X138450112Y-74771274D01*
X138351364Y-74532286D01*
X138168676Y-74349278D01*
X137929860Y-74250113D01*
X137671274Y-74249888D01*
X137432286Y-74348636D01*
X137249278Y-74531324D01*
X137150113Y-74770140D01*
X137149888Y-75028726D01*
X121549887Y-75028726D01*
X121550112Y-74771274D01*
X121451364Y-74532286D01*
X121268676Y-74349278D01*
X121163661Y-74305672D01*
X121200722Y-74268676D01*
X121299887Y-74029860D01*
X121300112Y-73771274D01*
X121201364Y-73532286D01*
X121197811Y-73528726D01*
X148749888Y-73528726D01*
X148848636Y-73767714D01*
X149031324Y-73950722D01*
X149270140Y-74049887D01*
X149528726Y-74050112D01*
X149767714Y-73951364D01*
X149950722Y-73768676D01*
X150049887Y-73529860D01*
X150049887Y-73528726D01*
X162749888Y-73528726D01*
X162848636Y-73767714D01*
X163031324Y-73950722D01*
X163270140Y-74049887D01*
X163528726Y-74050112D01*
X163580483Y-74028726D01*
X166249888Y-74028726D01*
X166348636Y-74267714D01*
X166531324Y-74450722D01*
X166770140Y-74549887D01*
X167028726Y-74550112D01*
X167267714Y-74451364D01*
X167450722Y-74268676D01*
X167549887Y-74029860D01*
X167550112Y-73771274D01*
X167451364Y-73532286D01*
X167268676Y-73349278D01*
X167029860Y-73250113D01*
X166771274Y-73249888D01*
X166532286Y-73348636D01*
X166349278Y-73531324D01*
X166250113Y-73770140D01*
X166249888Y-74028726D01*
X163580483Y-74028726D01*
X163767714Y-73951364D01*
X163950722Y-73768676D01*
X164049887Y-73529860D01*
X164050112Y-73271274D01*
X163951364Y-73032286D01*
X163768676Y-72849278D01*
X163529860Y-72750113D01*
X163271274Y-72749888D01*
X163032286Y-72848636D01*
X162849278Y-73031324D01*
X162750113Y-73270140D01*
X162749888Y-73528726D01*
X150049887Y-73528726D01*
X150050112Y-73271274D01*
X149951364Y-73032286D01*
X149768676Y-72849278D01*
X149529860Y-72750113D01*
X149271274Y-72749888D01*
X149032286Y-72848636D01*
X148849278Y-73031324D01*
X148750113Y-73270140D01*
X148749888Y-73528726D01*
X121197811Y-73528726D01*
X121018676Y-73349278D01*
X120779860Y-73250113D01*
X120521274Y-73249888D01*
X120282286Y-73348636D01*
X120099278Y-73531324D01*
X120000113Y-73770140D01*
X119999888Y-74028726D01*
X113073528Y-74028726D01*
X113032164Y-73820780D01*
X112772037Y-73431472D01*
X112382729Y-73171345D01*
X111923509Y-73080000D01*
X111876491Y-73080000D01*
X111417271Y-73171345D01*
X111027963Y-73431472D01*
X110767836Y-73820780D01*
X110676491Y-74280000D01*
X110425000Y-74280000D01*
X110425000Y-71740000D01*
X110676491Y-71740000D01*
X110767836Y-72199220D01*
X111027963Y-72588528D01*
X111417271Y-72848655D01*
X111876491Y-72940000D01*
X111923509Y-72940000D01*
X112382729Y-72848655D01*
X112545013Y-72740220D01*
X167285808Y-72740220D01*
X167454743Y-73149074D01*
X167767280Y-73462158D01*
X168175839Y-73631806D01*
X168618220Y-73632192D01*
X169027074Y-73463257D01*
X169340158Y-73150720D01*
X169509806Y-72742161D01*
X169510192Y-72299780D01*
X169341257Y-71890926D01*
X169028720Y-71577842D01*
X168620161Y-71408194D01*
X168177780Y-71407808D01*
X167768926Y-71576743D01*
X167455842Y-71889280D01*
X167286194Y-72297839D01*
X167285808Y-72740220D01*
X112545013Y-72740220D01*
X112772037Y-72588528D01*
X113032164Y-72199220D01*
X113066077Y-72028726D01*
X140249888Y-72028726D01*
X140348636Y-72267714D01*
X140531324Y-72450722D01*
X140770140Y-72549887D01*
X141028726Y-72550112D01*
X141267714Y-72451364D01*
X141450722Y-72268676D01*
X141549887Y-72029860D01*
X141549887Y-72028726D01*
X143249888Y-72028726D01*
X143348636Y-72267714D01*
X143531324Y-72450722D01*
X143770140Y-72549887D01*
X144028726Y-72550112D01*
X144267714Y-72451364D01*
X144450722Y-72268676D01*
X144549887Y-72029860D01*
X144550112Y-71771274D01*
X144451364Y-71532286D01*
X144268676Y-71349278D01*
X144029860Y-71250113D01*
X143771274Y-71249888D01*
X143532286Y-71348636D01*
X143349278Y-71531324D01*
X143250113Y-71770140D01*
X143249888Y-72028726D01*
X141549887Y-72028726D01*
X141550112Y-71771274D01*
X141451364Y-71532286D01*
X141268676Y-71349278D01*
X141029860Y-71250113D01*
X140771274Y-71249888D01*
X140532286Y-71348636D01*
X140349278Y-71531324D01*
X140250113Y-71770140D01*
X140249888Y-72028726D01*
X113066077Y-72028726D01*
X113123509Y-71740000D01*
X113032164Y-71280780D01*
X112772037Y-70891472D01*
X112382729Y-70631345D01*
X111923509Y-70540000D01*
X111876491Y-70540000D01*
X111417271Y-70631345D01*
X111027963Y-70891472D01*
X110767836Y-71280780D01*
X110676491Y-71740000D01*
X110425000Y-71740000D01*
X110425000Y-69200000D01*
X110676491Y-69200000D01*
X110767836Y-69659220D01*
X111027963Y-70048528D01*
X111417271Y-70308655D01*
X111876491Y-70400000D01*
X111923509Y-70400000D01*
X112382729Y-70308655D01*
X112772037Y-70048528D01*
X113032164Y-69659220D01*
X113123509Y-69200000D01*
X113032164Y-68740780D01*
X112772037Y-68351472D01*
X112382729Y-68091345D01*
X112067924Y-68028726D01*
X119999888Y-68028726D01*
X120098636Y-68267714D01*
X120281324Y-68450722D01*
X120386339Y-68494328D01*
X120349278Y-68531324D01*
X120250113Y-68770140D01*
X120249888Y-69028726D01*
X120348636Y-69267714D01*
X120386451Y-69305596D01*
X120282286Y-69348636D01*
X120099278Y-69531324D01*
X120000113Y-69770140D01*
X119999888Y-70028726D01*
X120098636Y-70267714D01*
X120281324Y-70450722D01*
X120520140Y-70549887D01*
X120778726Y-70550112D01*
X121017714Y-70451364D01*
X121200722Y-70268676D01*
X121299887Y-70029860D01*
X121300112Y-69771274D01*
X121201364Y-69532286D01*
X121163549Y-69494404D01*
X121267714Y-69451364D01*
X121450722Y-69268676D01*
X121549887Y-69029860D01*
X121550112Y-68771274D01*
X121451364Y-68532286D01*
X121268676Y-68349278D01*
X121163661Y-68305672D01*
X121200722Y-68268676D01*
X121299887Y-68029860D01*
X121300112Y-67771274D01*
X121282532Y-67728726D01*
X142749888Y-67728726D01*
X142848636Y-67967714D01*
X143031324Y-68150722D01*
X143270140Y-68249887D01*
X143528726Y-68250112D01*
X143767714Y-68151364D01*
X143950722Y-67968676D01*
X144049887Y-67729860D01*
X144049887Y-67728726D01*
X146049888Y-67728726D01*
X146148636Y-67967714D01*
X146331324Y-68150722D01*
X146570140Y-68249887D01*
X146828726Y-68250112D01*
X147067714Y-68151364D01*
X147250722Y-67968676D01*
X147349887Y-67729860D01*
X147349887Y-67728726D01*
X148249888Y-67728726D01*
X148348636Y-67967714D01*
X148531324Y-68150722D01*
X148770140Y-68249887D01*
X149028726Y-68250112D01*
X149267714Y-68151364D01*
X149450722Y-67968676D01*
X149549887Y-67729860D01*
X149549887Y-67728726D01*
X156249888Y-67728726D01*
X156348636Y-67967714D01*
X156531324Y-68150722D01*
X156770140Y-68249887D01*
X157028726Y-68250112D01*
X157267714Y-68151364D01*
X157450722Y-67968676D01*
X157549887Y-67729860D01*
X157549887Y-67728726D01*
X160749888Y-67728726D01*
X160848636Y-67967714D01*
X161031324Y-68150722D01*
X161270140Y-68249887D01*
X161528726Y-68250112D01*
X161767714Y-68151364D01*
X161950158Y-67969239D01*
X162131324Y-68150722D01*
X162370140Y-68249887D01*
X162628726Y-68250112D01*
X162867714Y-68151364D01*
X163050722Y-67968676D01*
X163149887Y-67729860D01*
X163150112Y-67471274D01*
X163051364Y-67232286D01*
X162868676Y-67049278D01*
X162629860Y-66950113D01*
X162371274Y-66949888D01*
X162132286Y-67048636D01*
X161949842Y-67230761D01*
X161768676Y-67049278D01*
X161529860Y-66950113D01*
X161271274Y-66949888D01*
X161032286Y-67048636D01*
X160849278Y-67231324D01*
X160750113Y-67470140D01*
X160749888Y-67728726D01*
X157549887Y-67728726D01*
X157550112Y-67471274D01*
X157451364Y-67232286D01*
X157268676Y-67049278D01*
X157029860Y-66950113D01*
X156771274Y-66949888D01*
X156532286Y-67048636D01*
X156349278Y-67231324D01*
X156250113Y-67470140D01*
X156249888Y-67728726D01*
X149549887Y-67728726D01*
X149550112Y-67471274D01*
X149451364Y-67232286D01*
X149268676Y-67049278D01*
X149029860Y-66950113D01*
X148771274Y-66949888D01*
X148532286Y-67048636D01*
X148349278Y-67231324D01*
X148250113Y-67470140D01*
X148249888Y-67728726D01*
X147349887Y-67728726D01*
X147350112Y-67471274D01*
X147251364Y-67232286D01*
X147068676Y-67049278D01*
X146829860Y-66950113D01*
X146571274Y-66949888D01*
X146332286Y-67048636D01*
X146149278Y-67231324D01*
X146050113Y-67470140D01*
X146049888Y-67728726D01*
X144049887Y-67728726D01*
X144050112Y-67471274D01*
X143951364Y-67232286D01*
X143768676Y-67049278D01*
X143529860Y-66950113D01*
X143271274Y-66949888D01*
X143032286Y-67048636D01*
X142849278Y-67231324D01*
X142750113Y-67470140D01*
X142749888Y-67728726D01*
X121282532Y-67728726D01*
X121201364Y-67532286D01*
X121018676Y-67349278D01*
X120779860Y-67250113D01*
X120521274Y-67249888D01*
X120282286Y-67348636D01*
X120099278Y-67531324D01*
X120000113Y-67770140D01*
X119999888Y-68028726D01*
X112067924Y-68028726D01*
X111923509Y-68000000D01*
X111876491Y-68000000D01*
X111417271Y-68091345D01*
X111027963Y-68351472D01*
X110767836Y-68740780D01*
X110676491Y-69200000D01*
X110425000Y-69200000D01*
X110425000Y-63915883D01*
X111399637Y-63915883D01*
X111718669Y-64688000D01*
X112308893Y-65279255D01*
X113080452Y-65599634D01*
X113915883Y-65600363D01*
X114688000Y-65281331D01*
X115279255Y-64691107D01*
X115599634Y-63919548D01*
X115599662Y-63886400D01*
X117169544Y-63886400D01*
X117169544Y-65613600D01*
X117193949Y-65743302D01*
X117270603Y-65862425D01*
X117387563Y-65942341D01*
X117526400Y-65970456D01*
X119253600Y-65970456D01*
X119383302Y-65946051D01*
X119502425Y-65869397D01*
X119582341Y-65752437D01*
X119610456Y-65613600D01*
X119610456Y-64726224D01*
X119716400Y-64726224D01*
X119716400Y-64773776D01*
X119808780Y-65238201D01*
X120071855Y-65631921D01*
X120465575Y-65894996D01*
X120930000Y-65987376D01*
X121394425Y-65894996D01*
X121788145Y-65631921D01*
X122051220Y-65238201D01*
X122143600Y-64773776D01*
X122143600Y-64726224D01*
X122256400Y-64726224D01*
X122256400Y-64773776D01*
X122348780Y-65238201D01*
X122611855Y-65631921D01*
X123005575Y-65894996D01*
X123470000Y-65987376D01*
X123934425Y-65894996D01*
X124328145Y-65631921D01*
X124591220Y-65238201D01*
X124683600Y-64773776D01*
X124683600Y-64726224D01*
X124796400Y-64726224D01*
X124796400Y-64773776D01*
X124888780Y-65238201D01*
X125151855Y-65631921D01*
X125545575Y-65894996D01*
X126010000Y-65987376D01*
X126474425Y-65894996D01*
X126868145Y-65631921D01*
X127131220Y-65238201D01*
X127223600Y-64773776D01*
X127223600Y-64726224D01*
X127336400Y-64726224D01*
X127336400Y-64773776D01*
X127428780Y-65238201D01*
X127691855Y-65631921D01*
X128085575Y-65894996D01*
X128550000Y-65987376D01*
X129014425Y-65894996D01*
X129408145Y-65631921D01*
X129671220Y-65238201D01*
X129763600Y-64773776D01*
X129763600Y-64726224D01*
X129876400Y-64726224D01*
X129876400Y-64773776D01*
X129968780Y-65238201D01*
X130231855Y-65631921D01*
X130625575Y-65894996D01*
X131090000Y-65987376D01*
X131554425Y-65894996D01*
X131948145Y-65631921D01*
X132211220Y-65238201D01*
X132303600Y-64773776D01*
X132303600Y-64726224D01*
X132416400Y-64726224D01*
X132416400Y-64773776D01*
X132508780Y-65238201D01*
X132771855Y-65631921D01*
X133165575Y-65894996D01*
X133630000Y-65987376D01*
X134094425Y-65894996D01*
X134488145Y-65631921D01*
X134751220Y-65238201D01*
X134843600Y-64773776D01*
X134843600Y-64726224D01*
X134956400Y-64726224D01*
X134956400Y-64773776D01*
X135048780Y-65238201D01*
X135311855Y-65631921D01*
X135705575Y-65894996D01*
X136170000Y-65987376D01*
X136634425Y-65894996D01*
X137028145Y-65631921D01*
X137291220Y-65238201D01*
X137383600Y-64773776D01*
X137383600Y-64726224D01*
X140036400Y-64726224D01*
X140036400Y-64773776D01*
X140128780Y-65238201D01*
X140391855Y-65631921D01*
X140785575Y-65894996D01*
X141250000Y-65987376D01*
X141714425Y-65894996D01*
X142108145Y-65631921D01*
X142371220Y-65238201D01*
X142463600Y-64773776D01*
X142463600Y-64726224D01*
X142576400Y-64726224D01*
X142576400Y-64773776D01*
X142668780Y-65238201D01*
X142931855Y-65631921D01*
X143325575Y-65894996D01*
X143790000Y-65987376D01*
X144254425Y-65894996D01*
X144648145Y-65631921D01*
X144911220Y-65238201D01*
X145003600Y-64773776D01*
X145003600Y-64726224D01*
X145116400Y-64726224D01*
X145116400Y-64773776D01*
X145208780Y-65238201D01*
X145471855Y-65631921D01*
X145865575Y-65894996D01*
X146330000Y-65987376D01*
X146794425Y-65894996D01*
X147188145Y-65631921D01*
X147451220Y-65238201D01*
X147543600Y-64773776D01*
X147543600Y-64726224D01*
X147656400Y-64726224D01*
X147656400Y-64773776D01*
X147748780Y-65238201D01*
X148011855Y-65631921D01*
X148405575Y-65894996D01*
X148870000Y-65987376D01*
X149334425Y-65894996D01*
X149728145Y-65631921D01*
X149991220Y-65238201D01*
X150083600Y-64773776D01*
X150083600Y-64726224D01*
X150196400Y-64726224D01*
X150196400Y-64773776D01*
X150288780Y-65238201D01*
X150551855Y-65631921D01*
X150945575Y-65894996D01*
X151410000Y-65987376D01*
X151874425Y-65894996D01*
X152268145Y-65631921D01*
X152531220Y-65238201D01*
X152623600Y-64773776D01*
X152623600Y-64726224D01*
X152736400Y-64726224D01*
X152736400Y-64773776D01*
X152828780Y-65238201D01*
X153091855Y-65631921D01*
X153485575Y-65894996D01*
X153950000Y-65987376D01*
X154414425Y-65894996D01*
X154808145Y-65631921D01*
X155071220Y-65238201D01*
X155163600Y-64773776D01*
X155163600Y-64726224D01*
X155276400Y-64726224D01*
X155276400Y-64773776D01*
X155368780Y-65238201D01*
X155631855Y-65631921D01*
X156025575Y-65894996D01*
X156490000Y-65987376D01*
X156954425Y-65894996D01*
X157348145Y-65631921D01*
X157611220Y-65238201D01*
X157703600Y-64773776D01*
X157703600Y-64726224D01*
X157816400Y-64726224D01*
X157816400Y-64773776D01*
X157908780Y-65238201D01*
X158171855Y-65631921D01*
X158565575Y-65894996D01*
X159030000Y-65987376D01*
X159494425Y-65894996D01*
X159888145Y-65631921D01*
X160151220Y-65238201D01*
X160243600Y-64773776D01*
X160243600Y-64726224D01*
X160356400Y-64726224D01*
X160356400Y-64773776D01*
X160448780Y-65238201D01*
X160711855Y-65631921D01*
X161105575Y-65894996D01*
X161570000Y-65987376D01*
X162034425Y-65894996D01*
X162352973Y-65682149D01*
X162195039Y-65839807D01*
X162095874Y-66078623D01*
X162095649Y-66337209D01*
X162194397Y-66576197D01*
X162377085Y-66759205D01*
X162615901Y-66858370D01*
X162874487Y-66858595D01*
X163113475Y-66759847D01*
X163296483Y-66577159D01*
X163395648Y-66338343D01*
X163395873Y-66079757D01*
X163297125Y-65840769D01*
X163114437Y-65657761D01*
X162875621Y-65558596D01*
X162617035Y-65558371D01*
X162410505Y-65643708D01*
X162428145Y-65631921D01*
X162691220Y-65238201D01*
X162783600Y-64773776D01*
X162783600Y-64726224D01*
X162896400Y-64726224D01*
X162896400Y-64773776D01*
X162988780Y-65238201D01*
X163251855Y-65631921D01*
X163645575Y-65894996D01*
X164110000Y-65987376D01*
X164574425Y-65894996D01*
X164770077Y-65764266D01*
X164649087Y-65885044D01*
X164549922Y-66123860D01*
X164549697Y-66382446D01*
X164648445Y-66621434D01*
X164831133Y-66804442D01*
X165069949Y-66903607D01*
X165328535Y-66903832D01*
X165567523Y-66805084D01*
X165750531Y-66622396D01*
X165849696Y-66383580D01*
X165849921Y-66124994D01*
X165751173Y-65886006D01*
X165568485Y-65702998D01*
X165329669Y-65603833D01*
X165071083Y-65603608D01*
X164912376Y-65669184D01*
X164968145Y-65631921D01*
X165231220Y-65238201D01*
X165323600Y-64773776D01*
X165323600Y-64726224D01*
X165436400Y-64726224D01*
X165436400Y-64773776D01*
X165528780Y-65238201D01*
X165791855Y-65631921D01*
X166185575Y-65894996D01*
X166650000Y-65987376D01*
X167114425Y-65894996D01*
X167508145Y-65631921D01*
X167771220Y-65238201D01*
X167863600Y-64773776D01*
X167863600Y-64726224D01*
X167771220Y-64261799D01*
X167540087Y-63915883D01*
X169399637Y-63915883D01*
X169718669Y-64688000D01*
X170308893Y-65279255D01*
X171080452Y-65599634D01*
X171915883Y-65600363D01*
X172000073Y-65565576D01*
X171999888Y-65778726D01*
X172098636Y-66017714D01*
X172281324Y-66200722D01*
X172520140Y-66299887D01*
X172778726Y-66300112D01*
X173017714Y-66201364D01*
X173200722Y-66018676D01*
X173299887Y-65779860D01*
X173300112Y-65521274D01*
X173201364Y-65282286D01*
X173018676Y-65099278D01*
X172913938Y-65055787D01*
X173279255Y-64691107D01*
X173599634Y-63919548D01*
X173600363Y-63084117D01*
X173281331Y-62312000D01*
X172691107Y-61720745D01*
X171919548Y-61400366D01*
X171084117Y-61399637D01*
X170312000Y-61718669D01*
X169720745Y-62308893D01*
X169400366Y-63080452D01*
X169399637Y-63915883D01*
X167540087Y-63915883D01*
X167508145Y-63868079D01*
X167114425Y-63605004D01*
X166650000Y-63512624D01*
X166185575Y-63605004D01*
X165791855Y-63868079D01*
X165528780Y-64261799D01*
X165436400Y-64726224D01*
X165323600Y-64726224D01*
X165231220Y-64261799D01*
X164968145Y-63868079D01*
X164574425Y-63605004D01*
X164110000Y-63512624D01*
X163645575Y-63605004D01*
X163251855Y-63868079D01*
X162988780Y-64261799D01*
X162896400Y-64726224D01*
X162783600Y-64726224D01*
X162691220Y-64261799D01*
X162428145Y-63868079D01*
X162034425Y-63605004D01*
X161570000Y-63512624D01*
X161105575Y-63605004D01*
X160711855Y-63868079D01*
X160448780Y-64261799D01*
X160356400Y-64726224D01*
X160243600Y-64726224D01*
X160151220Y-64261799D01*
X159888145Y-63868079D01*
X159494425Y-63605004D01*
X159030000Y-63512624D01*
X158565575Y-63605004D01*
X158171855Y-63868079D01*
X157908780Y-64261799D01*
X157816400Y-64726224D01*
X157703600Y-64726224D01*
X157611220Y-64261799D01*
X157348145Y-63868079D01*
X156954425Y-63605004D01*
X156490000Y-63512624D01*
X156025575Y-63605004D01*
X155631855Y-63868079D01*
X155368780Y-64261799D01*
X155276400Y-64726224D01*
X155163600Y-64726224D01*
X155071220Y-64261799D01*
X154808145Y-63868079D01*
X154414425Y-63605004D01*
X153950000Y-63512624D01*
X153485575Y-63605004D01*
X153091855Y-63868079D01*
X152828780Y-64261799D01*
X152736400Y-64726224D01*
X152623600Y-64726224D01*
X152531220Y-64261799D01*
X152268145Y-63868079D01*
X151874425Y-63605004D01*
X151410000Y-63512624D01*
X150945575Y-63605004D01*
X150551855Y-63868079D01*
X150288780Y-64261799D01*
X150196400Y-64726224D01*
X150083600Y-64726224D01*
X149991220Y-64261799D01*
X149728145Y-63868079D01*
X149334425Y-63605004D01*
X148870000Y-63512624D01*
X148405575Y-63605004D01*
X148011855Y-63868079D01*
X147748780Y-64261799D01*
X147656400Y-64726224D01*
X147543600Y-64726224D01*
X147451220Y-64261799D01*
X147188145Y-63868079D01*
X146794425Y-63605004D01*
X146330000Y-63512624D01*
X145865575Y-63605004D01*
X145471855Y-63868079D01*
X145208780Y-64261799D01*
X145116400Y-64726224D01*
X145003600Y-64726224D01*
X144911220Y-64261799D01*
X144648145Y-63868079D01*
X144254425Y-63605004D01*
X143790000Y-63512624D01*
X143325575Y-63605004D01*
X142931855Y-63868079D01*
X142668780Y-64261799D01*
X142576400Y-64726224D01*
X142463600Y-64726224D01*
X142371220Y-64261799D01*
X142108145Y-63868079D01*
X141714425Y-63605004D01*
X141250000Y-63512624D01*
X140785575Y-63605004D01*
X140391855Y-63868079D01*
X140128780Y-64261799D01*
X140036400Y-64726224D01*
X137383600Y-64726224D01*
X137291220Y-64261799D01*
X137028145Y-63868079D01*
X136634425Y-63605004D01*
X136170000Y-63512624D01*
X135705575Y-63605004D01*
X135311855Y-63868079D01*
X135048780Y-64261799D01*
X134956400Y-64726224D01*
X134843600Y-64726224D01*
X134751220Y-64261799D01*
X134488145Y-63868079D01*
X134094425Y-63605004D01*
X133630000Y-63512624D01*
X133165575Y-63605004D01*
X132771855Y-63868079D01*
X132508780Y-64261799D01*
X132416400Y-64726224D01*
X132303600Y-64726224D01*
X132211220Y-64261799D01*
X131948145Y-63868079D01*
X131554425Y-63605004D01*
X131090000Y-63512624D01*
X130625575Y-63605004D01*
X130231855Y-63868079D01*
X129968780Y-64261799D01*
X129876400Y-64726224D01*
X129763600Y-64726224D01*
X129671220Y-64261799D01*
X129408145Y-63868079D01*
X129014425Y-63605004D01*
X128550000Y-63512624D01*
X128085575Y-63605004D01*
X127691855Y-63868079D01*
X127428780Y-64261799D01*
X127336400Y-64726224D01*
X127223600Y-64726224D01*
X127131220Y-64261799D01*
X126868145Y-63868079D01*
X126474425Y-63605004D01*
X126010000Y-63512624D01*
X125545575Y-63605004D01*
X125151855Y-63868079D01*
X124888780Y-64261799D01*
X124796400Y-64726224D01*
X124683600Y-64726224D01*
X124591220Y-64261799D01*
X124328145Y-63868079D01*
X123934425Y-63605004D01*
X123470000Y-63512624D01*
X123005575Y-63605004D01*
X122611855Y-63868079D01*
X122348780Y-64261799D01*
X122256400Y-64726224D01*
X122143600Y-64726224D01*
X122051220Y-64261799D01*
X121788145Y-63868079D01*
X121394425Y-63605004D01*
X120930000Y-63512624D01*
X120465575Y-63605004D01*
X120071855Y-63868079D01*
X119808780Y-64261799D01*
X119716400Y-64726224D01*
X119610456Y-64726224D01*
X119610456Y-63886400D01*
X119586051Y-63756698D01*
X119509397Y-63637575D01*
X119392437Y-63557659D01*
X119253600Y-63529544D01*
X117526400Y-63529544D01*
X117396698Y-63553949D01*
X117277575Y-63630603D01*
X117197659Y-63747563D01*
X117169544Y-63886400D01*
X115599662Y-63886400D01*
X115600363Y-63084117D01*
X115281331Y-62312000D01*
X115155775Y-62186224D01*
X117176400Y-62186224D01*
X117176400Y-62233776D01*
X117268780Y-62698201D01*
X117531855Y-63091921D01*
X117925575Y-63354996D01*
X118390000Y-63447376D01*
X118854425Y-63354996D01*
X119248145Y-63091921D01*
X119511220Y-62698201D01*
X119603600Y-62233776D01*
X119603600Y-62186224D01*
X119716400Y-62186224D01*
X119716400Y-62233776D01*
X119808780Y-62698201D01*
X120071855Y-63091921D01*
X120465575Y-63354996D01*
X120930000Y-63447376D01*
X121394425Y-63354996D01*
X121788145Y-63091921D01*
X122051220Y-62698201D01*
X122143600Y-62233776D01*
X122143600Y-62186224D01*
X122256400Y-62186224D01*
X122256400Y-62233776D01*
X122348780Y-62698201D01*
X122611855Y-63091921D01*
X123005575Y-63354996D01*
X123470000Y-63447376D01*
X123934425Y-63354996D01*
X124328145Y-63091921D01*
X124591220Y-62698201D01*
X124683600Y-62233776D01*
X124683600Y-62186224D01*
X124796400Y-62186224D01*
X124796400Y-62233776D01*
X124888780Y-62698201D01*
X125151855Y-63091921D01*
X125545575Y-63354996D01*
X126010000Y-63447376D01*
X126474425Y-63354996D01*
X126868145Y-63091921D01*
X127131220Y-62698201D01*
X127223600Y-62233776D01*
X127223600Y-62186224D01*
X127336400Y-62186224D01*
X127336400Y-62233776D01*
X127428780Y-62698201D01*
X127691855Y-63091921D01*
X128085575Y-63354996D01*
X128550000Y-63447376D01*
X129014425Y-63354996D01*
X129408145Y-63091921D01*
X129671220Y-62698201D01*
X129763600Y-62233776D01*
X129763600Y-62186224D01*
X129876400Y-62186224D01*
X129876400Y-62233776D01*
X129968780Y-62698201D01*
X130231855Y-63091921D01*
X130625575Y-63354996D01*
X131090000Y-63447376D01*
X131554425Y-63354996D01*
X131948145Y-63091921D01*
X132211220Y-62698201D01*
X132303600Y-62233776D01*
X132303600Y-62186224D01*
X132416400Y-62186224D01*
X132416400Y-62233776D01*
X132508780Y-62698201D01*
X132771855Y-63091921D01*
X133165575Y-63354996D01*
X133630000Y-63447376D01*
X134094425Y-63354996D01*
X134488145Y-63091921D01*
X134751220Y-62698201D01*
X134843600Y-62233776D01*
X134843600Y-62186224D01*
X134956400Y-62186224D01*
X134956400Y-62233776D01*
X135048780Y-62698201D01*
X135311855Y-63091921D01*
X135705575Y-63354996D01*
X136170000Y-63447376D01*
X136634425Y-63354996D01*
X137028145Y-63091921D01*
X137291220Y-62698201D01*
X137383600Y-62233776D01*
X137383600Y-62186224D01*
X137496400Y-62186224D01*
X137496400Y-62233776D01*
X137588780Y-62698201D01*
X137851855Y-63091921D01*
X138245575Y-63354996D01*
X138710000Y-63447376D01*
X139174425Y-63354996D01*
X139568145Y-63091921D01*
X139831220Y-62698201D01*
X139923600Y-62233776D01*
X139923600Y-62186224D01*
X140036400Y-62186224D01*
X140036400Y-62233776D01*
X140128780Y-62698201D01*
X140391855Y-63091921D01*
X140785575Y-63354996D01*
X141250000Y-63447376D01*
X141714425Y-63354996D01*
X142108145Y-63091921D01*
X142371220Y-62698201D01*
X142463600Y-62233776D01*
X142463600Y-62186224D01*
X142576400Y-62186224D01*
X142576400Y-62233776D01*
X142668780Y-62698201D01*
X142931855Y-63091921D01*
X143325575Y-63354996D01*
X143790000Y-63447376D01*
X144254425Y-63354996D01*
X144648145Y-63091921D01*
X144911220Y-62698201D01*
X145003600Y-62233776D01*
X145003600Y-62186224D01*
X145116400Y-62186224D01*
X145116400Y-62233776D01*
X145208780Y-62698201D01*
X145471855Y-63091921D01*
X145865575Y-63354996D01*
X146330000Y-63447376D01*
X146794425Y-63354996D01*
X147188145Y-63091921D01*
X147451220Y-62698201D01*
X147543600Y-62233776D01*
X147543600Y-62186224D01*
X147656400Y-62186224D01*
X147656400Y-62233776D01*
X147748780Y-62698201D01*
X148011855Y-63091921D01*
X148405575Y-63354996D01*
X148870000Y-63447376D01*
X149334425Y-63354996D01*
X149728145Y-63091921D01*
X149991220Y-62698201D01*
X150083600Y-62233776D01*
X150083600Y-62186224D01*
X150196400Y-62186224D01*
X150196400Y-62233776D01*
X150288780Y-62698201D01*
X150551855Y-63091921D01*
X150945575Y-63354996D01*
X151410000Y-63447376D01*
X151874425Y-63354996D01*
X152268145Y-63091921D01*
X152531220Y-62698201D01*
X152623600Y-62233776D01*
X152623600Y-62186224D01*
X152736400Y-62186224D01*
X152736400Y-62233776D01*
X152828780Y-62698201D01*
X153091855Y-63091921D01*
X153485575Y-63354996D01*
X153950000Y-63447376D01*
X154414425Y-63354996D01*
X154808145Y-63091921D01*
X155071220Y-62698201D01*
X155163600Y-62233776D01*
X155163600Y-62186224D01*
X155276400Y-62186224D01*
X155276400Y-62233776D01*
X155368780Y-62698201D01*
X155631855Y-63091921D01*
X156025575Y-63354996D01*
X156490000Y-63447376D01*
X156954425Y-63354996D01*
X157348145Y-63091921D01*
X157611220Y-62698201D01*
X157703600Y-62233776D01*
X157703600Y-62186224D01*
X157816400Y-62186224D01*
X157816400Y-62233776D01*
X157908780Y-62698201D01*
X158171855Y-63091921D01*
X158565575Y-63354996D01*
X159030000Y-63447376D01*
X159494425Y-63354996D01*
X159888145Y-63091921D01*
X160151220Y-62698201D01*
X160243600Y-62233776D01*
X160243600Y-62186224D01*
X160356400Y-62186224D01*
X160356400Y-62233776D01*
X160448780Y-62698201D01*
X160711855Y-63091921D01*
X161105575Y-63354996D01*
X161570000Y-63447376D01*
X162034425Y-63354996D01*
X162428145Y-63091921D01*
X162691220Y-62698201D01*
X162783600Y-62233776D01*
X162783600Y-62186224D01*
X162896400Y-62186224D01*
X162896400Y-62233776D01*
X162988780Y-62698201D01*
X163251855Y-63091921D01*
X163645575Y-63354996D01*
X164110000Y-63447376D01*
X164574425Y-63354996D01*
X164968145Y-63091921D01*
X165231220Y-62698201D01*
X165323600Y-62233776D01*
X165323600Y-62186224D01*
X165436400Y-62186224D01*
X165436400Y-62233776D01*
X165528780Y-62698201D01*
X165791855Y-63091921D01*
X166185575Y-63354996D01*
X166650000Y-63447376D01*
X167114425Y-63354996D01*
X167508145Y-63091921D01*
X167771220Y-62698201D01*
X167863600Y-62233776D01*
X167863600Y-62186224D01*
X167771220Y-61721799D01*
X167508145Y-61328079D01*
X167114425Y-61065004D01*
X166650000Y-60972624D01*
X166185575Y-61065004D01*
X165791855Y-61328079D01*
X165528780Y-61721799D01*
X165436400Y-62186224D01*
X165323600Y-62186224D01*
X165231220Y-61721799D01*
X164968145Y-61328079D01*
X164574425Y-61065004D01*
X164110000Y-60972624D01*
X163645575Y-61065004D01*
X163251855Y-61328079D01*
X162988780Y-61721799D01*
X162896400Y-62186224D01*
X162783600Y-62186224D01*
X162691220Y-61721799D01*
X162428145Y-61328079D01*
X162034425Y-61065004D01*
X161570000Y-60972624D01*
X161105575Y-61065004D01*
X160711855Y-61328079D01*
X160448780Y-61721799D01*
X160356400Y-62186224D01*
X160243600Y-62186224D01*
X160151220Y-61721799D01*
X159888145Y-61328079D01*
X159494425Y-61065004D01*
X159030000Y-60972624D01*
X158565575Y-61065004D01*
X158171855Y-61328079D01*
X157908780Y-61721799D01*
X157816400Y-62186224D01*
X157703600Y-62186224D01*
X157611220Y-61721799D01*
X157348145Y-61328079D01*
X156954425Y-61065004D01*
X156490000Y-60972624D01*
X156025575Y-61065004D01*
X155631855Y-61328079D01*
X155368780Y-61721799D01*
X155276400Y-62186224D01*
X155163600Y-62186224D01*
X155071220Y-61721799D01*
X154808145Y-61328079D01*
X154414425Y-61065004D01*
X153950000Y-60972624D01*
X153485575Y-61065004D01*
X153091855Y-61328079D01*
X152828780Y-61721799D01*
X152736400Y-62186224D01*
X152623600Y-62186224D01*
X152531220Y-61721799D01*
X152268145Y-61328079D01*
X151874425Y-61065004D01*
X151410000Y-60972624D01*
X150945575Y-61065004D01*
X150551855Y-61328079D01*
X150288780Y-61721799D01*
X150196400Y-62186224D01*
X150083600Y-62186224D01*
X149991220Y-61721799D01*
X149728145Y-61328079D01*
X149334425Y-61065004D01*
X148870000Y-60972624D01*
X148405575Y-61065004D01*
X148011855Y-61328079D01*
X147748780Y-61721799D01*
X147656400Y-62186224D01*
X147543600Y-62186224D01*
X147451220Y-61721799D01*
X147188145Y-61328079D01*
X146794425Y-61065004D01*
X146330000Y-60972624D01*
X145865575Y-61065004D01*
X145471855Y-61328079D01*
X145208780Y-61721799D01*
X145116400Y-62186224D01*
X145003600Y-62186224D01*
X144911220Y-61721799D01*
X144648145Y-61328079D01*
X144254425Y-61065004D01*
X143790000Y-60972624D01*
X143325575Y-61065004D01*
X142931855Y-61328079D01*
X142668780Y-61721799D01*
X142576400Y-62186224D01*
X142463600Y-62186224D01*
X142371220Y-61721799D01*
X142108145Y-61328079D01*
X141714425Y-61065004D01*
X141250000Y-60972624D01*
X140785575Y-61065004D01*
X140391855Y-61328079D01*
X140128780Y-61721799D01*
X140036400Y-62186224D01*
X139923600Y-62186224D01*
X139831220Y-61721799D01*
X139568145Y-61328079D01*
X139174425Y-61065004D01*
X138710000Y-60972624D01*
X138245575Y-61065004D01*
X137851855Y-61328079D01*
X137588780Y-61721799D01*
X137496400Y-62186224D01*
X137383600Y-62186224D01*
X137291220Y-61721799D01*
X137028145Y-61328079D01*
X136634425Y-61065004D01*
X136170000Y-60972624D01*
X135705575Y-61065004D01*
X135311855Y-61328079D01*
X135048780Y-61721799D01*
X134956400Y-62186224D01*
X134843600Y-62186224D01*
X134751220Y-61721799D01*
X134488145Y-61328079D01*
X134094425Y-61065004D01*
X133630000Y-60972624D01*
X133165575Y-61065004D01*
X132771855Y-61328079D01*
X132508780Y-61721799D01*
X132416400Y-62186224D01*
X132303600Y-62186224D01*
X132211220Y-61721799D01*
X131948145Y-61328079D01*
X131554425Y-61065004D01*
X131090000Y-60972624D01*
X130625575Y-61065004D01*
X130231855Y-61328079D01*
X129968780Y-61721799D01*
X129876400Y-62186224D01*
X129763600Y-62186224D01*
X129671220Y-61721799D01*
X129408145Y-61328079D01*
X129014425Y-61065004D01*
X128550000Y-60972624D01*
X128085575Y-61065004D01*
X127691855Y-61328079D01*
X127428780Y-61721799D01*
X127336400Y-62186224D01*
X127223600Y-62186224D01*
X127131220Y-61721799D01*
X126868145Y-61328079D01*
X126474425Y-61065004D01*
X126010000Y-60972624D01*
X125545575Y-61065004D01*
X125151855Y-61328079D01*
X124888780Y-61721799D01*
X124796400Y-62186224D01*
X124683600Y-62186224D01*
X124591220Y-61721799D01*
X124328145Y-61328079D01*
X123934425Y-61065004D01*
X123470000Y-60972624D01*
X123005575Y-61065004D01*
X122611855Y-61328079D01*
X122348780Y-61721799D01*
X122256400Y-62186224D01*
X122143600Y-62186224D01*
X122051220Y-61721799D01*
X121788145Y-61328079D01*
X121394425Y-61065004D01*
X120930000Y-60972624D01*
X120465575Y-61065004D01*
X120071855Y-61328079D01*
X119808780Y-61721799D01*
X119716400Y-62186224D01*
X119603600Y-62186224D01*
X119511220Y-61721799D01*
X119248145Y-61328079D01*
X118854425Y-61065004D01*
X118390000Y-60972624D01*
X117925575Y-61065004D01*
X117531855Y-61328079D01*
X117268780Y-61721799D01*
X117176400Y-62186224D01*
X115155775Y-62186224D01*
X114691107Y-61720745D01*
X113919548Y-61400366D01*
X113084117Y-61399637D01*
X112312000Y-61718669D01*
X111720745Y-62308893D01*
X111400366Y-63080452D01*
X111399637Y-63915883D01*
X110425000Y-63915883D01*
X110425000Y-63541860D01*
X110666764Y-62326434D01*
X111331534Y-61331534D01*
X112326435Y-60666763D01*
X113541860Y-60425000D01*
X171458140Y-60425000D01*
X172673566Y-60666764D01*
X172673566Y-60666764D01*
G37*
X172673566Y-60666764D02*
X173668466Y-61331534D01*
X174333237Y-62326435D01*
X174575000Y-63541860D01*
X174575000Y-72263013D01*
X174421257Y-71890926D01*
X174108720Y-71577842D01*
X173700161Y-71408194D01*
X173257780Y-71407808D01*
X172848926Y-71576743D01*
X172535842Y-71889280D01*
X172366194Y-72297839D01*
X172365808Y-72740220D01*
X172534743Y-73149074D01*
X172847280Y-73462158D01*
X173255839Y-73631806D01*
X173698220Y-73632192D01*
X174107074Y-73463257D01*
X174420158Y-73150720D01*
X174575000Y-72777818D01*
X174575000Y-77343013D01*
X174421257Y-76970926D01*
X174108720Y-76657842D01*
X173700161Y-76488194D01*
X173257780Y-76487808D01*
X172848926Y-76656743D01*
X172535842Y-76969280D01*
X172366194Y-77377839D01*
X172365808Y-77820220D01*
X172534743Y-78229074D01*
X172847280Y-78542158D01*
X173255839Y-78711806D01*
X173698220Y-78712192D01*
X174107074Y-78543257D01*
X174420158Y-78230720D01*
X174575000Y-77857818D01*
X174575000Y-96458140D01*
X174333237Y-97673565D01*
X173668466Y-98668466D01*
X172673566Y-99333236D01*
X171458140Y-99575000D01*
X166301342Y-99575000D01*
X166487074Y-99498257D01*
X166800158Y-99185720D01*
X166969806Y-98777161D01*
X166970192Y-98334780D01*
X166801257Y-97925926D01*
X166488720Y-97612842D01*
X166080161Y-97443194D01*
X165637780Y-97442808D01*
X165228926Y-97611743D01*
X164915842Y-97924280D01*
X164746194Y-98332839D01*
X164745808Y-98775220D01*
X164914743Y-99184074D01*
X165227280Y-99497158D01*
X165414745Y-99575000D01*
X161221342Y-99575000D01*
X161407074Y-99498257D01*
X161720158Y-99185720D01*
X161889806Y-98777161D01*
X161890192Y-98334780D01*
X161721257Y-97925926D01*
X161408720Y-97612842D01*
X161000161Y-97443194D01*
X160557780Y-97442808D01*
X160148926Y-97611743D01*
X159835842Y-97924280D01*
X159666194Y-98332839D01*
X159665808Y-98775220D01*
X159834743Y-99184074D01*
X160147280Y-99497158D01*
X160334745Y-99575000D01*
X113541860Y-99575000D01*
X112326435Y-99333237D01*
X111331534Y-98668466D01*
X110666764Y-97673566D01*
X110542729Y-97050000D01*
X114693144Y-97050000D01*
X114693144Y-98750000D01*
X114717549Y-98879702D01*
X114794203Y-98998825D01*
X114911163Y-99078741D01*
X115050000Y-99106856D01*
X116750000Y-99106856D01*
X116879702Y-99082451D01*
X116998825Y-99005797D01*
X117078741Y-98888837D01*
X117106856Y-98750000D01*
X117106856Y-97876491D01*
X117240000Y-97876491D01*
X117240000Y-97923509D01*
X117331345Y-98382729D01*
X117591472Y-98772037D01*
X117980780Y-99032164D01*
X118440000Y-99123509D01*
X118899220Y-99032164D01*
X119288528Y-98772037D01*
X119548655Y-98382729D01*
X119640000Y-97923509D01*
X119640000Y-97876491D01*
X119548655Y-97417271D01*
X119303253Y-97050000D01*
X122693144Y-97050000D01*
X122693144Y-98750000D01*
X122717549Y-98879702D01*
X122794203Y-98998825D01*
X122911163Y-99078741D01*
X123050000Y-99106856D01*
X124750000Y-99106856D01*
X124879702Y-99082451D01*
X124998825Y-99005797D01*
X125078741Y-98888837D01*
X125106856Y-98750000D01*
X125106856Y-97876491D01*
X125240000Y-97876491D01*
X125240000Y-97923509D01*
X125331345Y-98382729D01*
X125591472Y-98772037D01*
X125980780Y-99032164D01*
X126440000Y-99123509D01*
X126899220Y-99032164D01*
X127288528Y-98772037D01*
X127548655Y-98382729D01*
X127640000Y-97923509D01*
X127640000Y-97876491D01*
X127548655Y-97417271D01*
X127303253Y-97050000D01*
X130693144Y-97050000D01*
X130693144Y-98750000D01*
X130717549Y-98879702D01*
X130794203Y-98998825D01*
X130911163Y-99078741D01*
X131050000Y-99106856D01*
X132750000Y-99106856D01*
X132879702Y-99082451D01*
X132998825Y-99005797D01*
X133078741Y-98888837D01*
X133106856Y-98750000D01*
X133106856Y-97876491D01*
X133240000Y-97876491D01*
X133240000Y-97923509D01*
X133331345Y-98382729D01*
X133591472Y-98772037D01*
X133980780Y-99032164D01*
X134440000Y-99123509D01*
X134899220Y-99032164D01*
X135288528Y-98772037D01*
X135548655Y-98382729D01*
X135640000Y-97923509D01*
X135640000Y-97876491D01*
X135548655Y-97417271D01*
X135303253Y-97050000D01*
X138693144Y-97050000D01*
X138693144Y-98750000D01*
X138717549Y-98879702D01*
X138794203Y-98998825D01*
X138911163Y-99078741D01*
X139050000Y-99106856D01*
X140750000Y-99106856D01*
X140879702Y-99082451D01*
X140998825Y-99005797D01*
X141078741Y-98888837D01*
X141106856Y-98750000D01*
X141106856Y-97876491D01*
X141240000Y-97876491D01*
X141240000Y-97923509D01*
X141331345Y-98382729D01*
X141591472Y-98772037D01*
X141980780Y-99032164D01*
X142440000Y-99123509D01*
X142899220Y-99032164D01*
X143288528Y-98772037D01*
X143548655Y-98382729D01*
X143640000Y-97923509D01*
X143640000Y-97876491D01*
X143548655Y-97417271D01*
X143303253Y-97050000D01*
X146693144Y-97050000D01*
X146693144Y-98750000D01*
X146717549Y-98879702D01*
X146794203Y-98998825D01*
X146911163Y-99078741D01*
X147050000Y-99106856D01*
X148750000Y-99106856D01*
X148879702Y-99082451D01*
X148998825Y-99005797D01*
X149078741Y-98888837D01*
X149106856Y-98750000D01*
X149106856Y-97876491D01*
X149240000Y-97876491D01*
X149240000Y-97923509D01*
X149331345Y-98382729D01*
X149591472Y-98772037D01*
X149980780Y-99032164D01*
X150440000Y-99123509D01*
X150899220Y-99032164D01*
X151288528Y-98772037D01*
X151548655Y-98382729D01*
X151640000Y-97923509D01*
X151640000Y-97876491D01*
X151548655Y-97417271D01*
X151288528Y-97027963D01*
X150899220Y-96767836D01*
X150440000Y-96676491D01*
X149980780Y-96767836D01*
X149591472Y-97027963D01*
X149331345Y-97417271D01*
X149240000Y-97876491D01*
X149106856Y-97876491D01*
X149106856Y-97050000D01*
X149082451Y-96920298D01*
X149005797Y-96801175D01*
X148888837Y-96721259D01*
X148750000Y-96693144D01*
X147050000Y-96693144D01*
X146920298Y-96717549D01*
X146801175Y-96794203D01*
X146721259Y-96911163D01*
X146693144Y-97050000D01*
X143303253Y-97050000D01*
X143288528Y-97027963D01*
X142899220Y-96767836D01*
X142440000Y-96676491D01*
X141980780Y-96767836D01*
X141591472Y-97027963D01*
X141331345Y-97417271D01*
X141240000Y-97876491D01*
X141106856Y-97876491D01*
X141106856Y-97050000D01*
X141082451Y-96920298D01*
X141005797Y-96801175D01*
X140888837Y-96721259D01*
X140750000Y-96693144D01*
X139050000Y-96693144D01*
X138920298Y-96717549D01*
X138801175Y-96794203D01*
X138721259Y-96911163D01*
X138693144Y-97050000D01*
X135303253Y-97050000D01*
X135288528Y-97027963D01*
X134899220Y-96767836D01*
X134440000Y-96676491D01*
X133980780Y-96767836D01*
X133591472Y-97027963D01*
X133331345Y-97417271D01*
X133240000Y-97876491D01*
X133106856Y-97876491D01*
X133106856Y-97050000D01*
X133082451Y-96920298D01*
X133005797Y-96801175D01*
X132888837Y-96721259D01*
X132750000Y-96693144D01*
X131050000Y-96693144D01*
X130920298Y-96717549D01*
X130801175Y-96794203D01*
X130721259Y-96911163D01*
X130693144Y-97050000D01*
X127303253Y-97050000D01*
X127288528Y-97027963D01*
X126899220Y-96767836D01*
X126440000Y-96676491D01*
X125980780Y-96767836D01*
X125591472Y-97027963D01*
X125331345Y-97417271D01*
X125240000Y-97876491D01*
X125106856Y-97876491D01*
X125106856Y-97050000D01*
X125082451Y-96920298D01*
X125005797Y-96801175D01*
X124888837Y-96721259D01*
X124750000Y-96693144D01*
X123050000Y-96693144D01*
X122920298Y-96717549D01*
X122801175Y-96794203D01*
X122721259Y-96911163D01*
X122693144Y-97050000D01*
X119303253Y-97050000D01*
X119288528Y-97027963D01*
X118899220Y-96767836D01*
X118440000Y-96676491D01*
X117980780Y-96767836D01*
X117591472Y-97027963D01*
X117331345Y-97417271D01*
X117240000Y-97876491D01*
X117106856Y-97876491D01*
X117106856Y-97050000D01*
X117082451Y-96920298D01*
X117005797Y-96801175D01*
X116888837Y-96721259D01*
X116750000Y-96693144D01*
X115050000Y-96693144D01*
X114920298Y-96717549D01*
X114801175Y-96794203D01*
X114721259Y-96911163D01*
X114693144Y-97050000D01*
X110542729Y-97050000D01*
X110425000Y-96458140D01*
X110425000Y-96028726D01*
X160249888Y-96028726D01*
X160348636Y-96267714D01*
X160531324Y-96450722D01*
X160770140Y-96549887D01*
X161028726Y-96550112D01*
X161267714Y-96451364D01*
X161450722Y-96268676D01*
X161464614Y-96235220D01*
X162205808Y-96235220D01*
X162374743Y-96644074D01*
X162687280Y-96957158D01*
X163095839Y-97126806D01*
X163538220Y-97127192D01*
X163947074Y-96958257D01*
X164260158Y-96645720D01*
X164429806Y-96237161D01*
X164429987Y-96028726D01*
X165249888Y-96028726D01*
X165348636Y-96267714D01*
X165531324Y-96450722D01*
X165770140Y-96549887D01*
X166028726Y-96550112D01*
X166267714Y-96451364D01*
X166450722Y-96268676D01*
X166549887Y-96029860D01*
X166550112Y-95771274D01*
X166451364Y-95532286D01*
X166268676Y-95349278D01*
X166029860Y-95250113D01*
X165771274Y-95249888D01*
X165532286Y-95348636D01*
X165349278Y-95531324D01*
X165250113Y-95770140D01*
X165249888Y-96028726D01*
X164429987Y-96028726D01*
X164430192Y-95794780D01*
X164261257Y-95385926D01*
X163948720Y-95072842D01*
X163540161Y-94903194D01*
X163097780Y-94902808D01*
X162688926Y-95071743D01*
X162375842Y-95384280D01*
X162206194Y-95792839D01*
X162205808Y-96235220D01*
X161464614Y-96235220D01*
X161549887Y-96029860D01*
X161550112Y-95771274D01*
X161451364Y-95532286D01*
X161268676Y-95349278D01*
X161029860Y-95250113D01*
X160771274Y-95249888D01*
X160532286Y-95348636D01*
X160349278Y-95531324D01*
X160250113Y-95770140D01*
X160249888Y-96028726D01*
X110425000Y-96028726D01*
X110425000Y-94778726D01*
X111749888Y-94778726D01*
X111848636Y-95017714D01*
X112031324Y-95200722D01*
X112270140Y-95299887D01*
X112528726Y-95300112D01*
X112767714Y-95201364D01*
X112950722Y-95018676D01*
X113049887Y-94779860D01*
X113050112Y-94521274D01*
X112951364Y-94282286D01*
X112768676Y-94099278D01*
X112529860Y-94000113D01*
X112271274Y-93999888D01*
X112032286Y-94098636D01*
X111849278Y-94281324D01*
X111750113Y-94520140D01*
X111749888Y-94778726D01*
X110425000Y-94778726D01*
X110425000Y-93695220D01*
X159665808Y-93695220D01*
X159834743Y-94104074D01*
X160147280Y-94417158D01*
X160555839Y-94586806D01*
X160998220Y-94587192D01*
X161407074Y-94418257D01*
X161720158Y-94105720D01*
X161889806Y-93697161D01*
X161889807Y-93695220D01*
X164745808Y-93695220D01*
X164914743Y-94104074D01*
X165227280Y-94417158D01*
X165635839Y-94586806D01*
X166078220Y-94587192D01*
X166487074Y-94418257D01*
X166800158Y-94105720D01*
X166969806Y-93697161D01*
X166970192Y-93254780D01*
X166801257Y-92845926D01*
X166488720Y-92532842D01*
X166080161Y-92363194D01*
X165637780Y-92362808D01*
X165228926Y-92531743D01*
X164915842Y-92844280D01*
X164746194Y-93252839D01*
X164745808Y-93695220D01*
X161889807Y-93695220D01*
X161890192Y-93254780D01*
X161721257Y-92845926D01*
X161408720Y-92532842D01*
X161000161Y-92363194D01*
X160557780Y-92362808D01*
X160148926Y-92531743D01*
X159835842Y-92844280D01*
X159666194Y-93252839D01*
X159665808Y-93695220D01*
X110425000Y-93695220D01*
X110425000Y-91028726D01*
X144949888Y-91028726D01*
X145048636Y-91267714D01*
X145231324Y-91450722D01*
X145470140Y-91549887D01*
X145728726Y-91550112D01*
X145967714Y-91451364D01*
X146150158Y-91269239D01*
X146331324Y-91450722D01*
X146570140Y-91549887D01*
X146828726Y-91550112D01*
X147067714Y-91451364D01*
X147250722Y-91268676D01*
X147349887Y-91029860D01*
X147349887Y-91028726D01*
X148249888Y-91028726D01*
X148348636Y-91267714D01*
X148531324Y-91450722D01*
X148770140Y-91549887D01*
X149028726Y-91550112D01*
X149267714Y-91451364D01*
X149450158Y-91269239D01*
X149631324Y-91450722D01*
X149870140Y-91549887D01*
X150128726Y-91550112D01*
X150367714Y-91451364D01*
X150550722Y-91268676D01*
X150649887Y-91029860D01*
X150649887Y-91028726D01*
X155349888Y-91028726D01*
X155448636Y-91267714D01*
X155631324Y-91450722D01*
X155870140Y-91549887D01*
X156128726Y-91550112D01*
X156367714Y-91451364D01*
X156550722Y-91268676D01*
X156649887Y-91029860D01*
X156649887Y-91028726D01*
X161049888Y-91028726D01*
X161148636Y-91267714D01*
X161331324Y-91450722D01*
X161570140Y-91549887D01*
X161828726Y-91550112D01*
X162067714Y-91451364D01*
X162250722Y-91268676D01*
X162349887Y-91029860D01*
X162349887Y-91028726D01*
X164249888Y-91028726D01*
X164348636Y-91267714D01*
X164531324Y-91450722D01*
X164770140Y-91549887D01*
X165028726Y-91550112D01*
X165267714Y-91451364D01*
X165450722Y-91268676D01*
X165549887Y-91029860D01*
X165550112Y-90771274D01*
X165451364Y-90532286D01*
X165268676Y-90349278D01*
X165029860Y-90250113D01*
X164771274Y-90249888D01*
X164532286Y-90348636D01*
X164349278Y-90531324D01*
X164250113Y-90770140D01*
X164249888Y-91028726D01*
X162349887Y-91028726D01*
X162350112Y-90771274D01*
X162251364Y-90532286D01*
X162068676Y-90349278D01*
X161829860Y-90250113D01*
X161571274Y-90249888D01*
X161332286Y-90348636D01*
X161149278Y-90531324D01*
X161050113Y-90770140D01*
X161049888Y-91028726D01*
X156649887Y-91028726D01*
X156650112Y-90771274D01*
X156551364Y-90532286D01*
X156368676Y-90349278D01*
X156129860Y-90250113D01*
X155871274Y-90249888D01*
X155632286Y-90348636D01*
X155449278Y-90531324D01*
X155350113Y-90770140D01*
X155349888Y-91028726D01*
X150649887Y-91028726D01*
X150650112Y-90771274D01*
X150551364Y-90532286D01*
X150368676Y-90349278D01*
X150129860Y-90250113D01*
X149871274Y-90249888D01*
X149632286Y-90348636D01*
X149449842Y-90530761D01*
X149268676Y-90349278D01*
X149029860Y-90250113D01*
X148771274Y-90249888D01*
X148532286Y-90348636D01*
X148349278Y-90531324D01*
X148250113Y-90770140D01*
X148249888Y-91028726D01*
X147349887Y-91028726D01*
X147350112Y-90771274D01*
X147251364Y-90532286D01*
X147068676Y-90349278D01*
X146829860Y-90250113D01*
X146571274Y-90249888D01*
X146332286Y-90348636D01*
X146149842Y-90530761D01*
X145968676Y-90349278D01*
X145729860Y-90250113D01*
X145471274Y-90249888D01*
X145232286Y-90348636D01*
X145049278Y-90531324D01*
X144950113Y-90770140D01*
X144949888Y-91028726D01*
X110425000Y-91028726D01*
X110425000Y-89028726D01*
X164249888Y-89028726D01*
X164348636Y-89267714D01*
X164531324Y-89450722D01*
X164770140Y-89549887D01*
X165028726Y-89550112D01*
X165267714Y-89451364D01*
X165450722Y-89268676D01*
X165549887Y-89029860D01*
X165550112Y-88771274D01*
X165451364Y-88532286D01*
X165268676Y-88349278D01*
X165029860Y-88250113D01*
X164771274Y-88249888D01*
X164532286Y-88348636D01*
X164349278Y-88531324D01*
X164250113Y-88770140D01*
X164249888Y-89028726D01*
X110425000Y-89028726D01*
X110425000Y-86915883D01*
X111399637Y-86915883D01*
X111718669Y-87688000D01*
X112308893Y-88279255D01*
X113080452Y-88599634D01*
X113915883Y-88600363D01*
X114688000Y-88281331D01*
X115279255Y-87691107D01*
X115554299Y-87028726D01*
X134249888Y-87028726D01*
X134348636Y-87267714D01*
X134531324Y-87450722D01*
X134770140Y-87549887D01*
X135028726Y-87550112D01*
X135267714Y-87451364D01*
X135450722Y-87268676D01*
X135549887Y-87029860D01*
X135549887Y-87028726D01*
X137249888Y-87028726D01*
X137348636Y-87267714D01*
X137531324Y-87450722D01*
X137770140Y-87549887D01*
X138028726Y-87550112D01*
X138267714Y-87451364D01*
X138339477Y-87379726D01*
X160682888Y-87379726D01*
X160781636Y-87618714D01*
X160964324Y-87801722D01*
X161203140Y-87900887D01*
X161461726Y-87901112D01*
X161700714Y-87802364D01*
X161883722Y-87619676D01*
X161982887Y-87380860D01*
X161983112Y-87122274D01*
X161897833Y-86915883D01*
X169399637Y-86915883D01*
X169718669Y-87688000D01*
X170308893Y-88279255D01*
X171080452Y-88599634D01*
X171915883Y-88600363D01*
X172688000Y-88281331D01*
X173279255Y-87691107D01*
X173599634Y-86919548D01*
X173600363Y-86084117D01*
X173281331Y-85312000D01*
X172691107Y-84720745D01*
X171919548Y-84400366D01*
X171084117Y-84399637D01*
X170312000Y-84718669D01*
X169720745Y-85308893D01*
X169400366Y-86080452D01*
X169399637Y-86915883D01*
X161897833Y-86915883D01*
X161884364Y-86883286D01*
X161701676Y-86700278D01*
X161462860Y-86601113D01*
X161204274Y-86600888D01*
X160965286Y-86699636D01*
X160782278Y-86882324D01*
X160683113Y-87121140D01*
X160682888Y-87379726D01*
X138339477Y-87379726D01*
X138450722Y-87268676D01*
X138549887Y-87029860D01*
X138550112Y-86771274D01*
X138451364Y-86532286D01*
X138268676Y-86349278D01*
X138029860Y-86250113D01*
X137771274Y-86249888D01*
X137532286Y-86348636D01*
X137349278Y-86531324D01*
X137250113Y-86770140D01*
X137249888Y-87028726D01*
X135549887Y-87028726D01*
X135550112Y-86771274D01*
X135451364Y-86532286D01*
X135268676Y-86349278D01*
X135029860Y-86250113D01*
X134771274Y-86249888D01*
X134532286Y-86348636D01*
X134349278Y-86531324D01*
X134250113Y-86770140D01*
X134249888Y-87028726D01*
X115554299Y-87028726D01*
X115599634Y-86919548D01*
X115600363Y-86084117D01*
X115370881Y-85528726D01*
X160749888Y-85528726D01*
X160848636Y-85767714D01*
X161031324Y-85950722D01*
X161270140Y-86049887D01*
X161528726Y-86050112D01*
X161767714Y-85951364D01*
X161950722Y-85768676D01*
X162049887Y-85529860D01*
X162050112Y-85271274D01*
X161951364Y-85032286D01*
X161768676Y-84849278D01*
X161529860Y-84750113D01*
X161271274Y-84749888D01*
X161032286Y-84848636D01*
X160849278Y-85031324D01*
X160750113Y-85270140D01*
X160749888Y-85528726D01*
X115370881Y-85528726D01*
X115281331Y-85312000D01*
X114691107Y-84720745D01*
X114228674Y-84528726D01*
X137149888Y-84528726D01*
X137248636Y-84767714D01*
X137431324Y-84950722D01*
X137670140Y-85049887D01*
X137928726Y-85050112D01*
X138167714Y-84951364D01*
X138350722Y-84768676D01*
X138449887Y-84529860D01*
X138450112Y-84271274D01*
X138351364Y-84032286D01*
X138168676Y-83849278D01*
X137929860Y-83750113D01*
X137671274Y-83749888D01*
X137432286Y-83848636D01*
X137249278Y-84031324D01*
X137150113Y-84270140D01*
X137149888Y-84528726D01*
X114228674Y-84528726D01*
X113919548Y-84400366D01*
X113084117Y-84399637D01*
X112312000Y-84718669D01*
X111720745Y-85308893D01*
X111400366Y-86080452D01*
X111399637Y-86915883D01*
X110425000Y-86915883D01*
X110425000Y-83328726D01*
X166249888Y-83328726D01*
X166348636Y-83567714D01*
X166530761Y-83750158D01*
X166349278Y-83931324D01*
X166250113Y-84170140D01*
X166249888Y-84428726D01*
X166348636Y-84667714D01*
X166531324Y-84850722D01*
X166770140Y-84949887D01*
X167028726Y-84950112D01*
X167267714Y-84851364D01*
X167450722Y-84668676D01*
X167549887Y-84429860D01*
X167550112Y-84171274D01*
X167451364Y-83932286D01*
X167269239Y-83749842D01*
X167450722Y-83568676D01*
X167549887Y-83329860D01*
X167550112Y-83071274D01*
X167451364Y-82832286D01*
X167268676Y-82649278D01*
X167029860Y-82550113D01*
X166771274Y-82549888D01*
X166532286Y-82648636D01*
X166349278Y-82831324D01*
X166250113Y-83070140D01*
X166249888Y-83328726D01*
X110425000Y-83328726D01*
X110425000Y-81050000D01*
X110693144Y-81050000D01*
X110693144Y-82750000D01*
X110717549Y-82879702D01*
X110794203Y-82998825D01*
X110911163Y-83078741D01*
X111050000Y-83106856D01*
X112750000Y-83106856D01*
X112879702Y-83082451D01*
X112998825Y-83005797D01*
X113078741Y-82888837D01*
X113106856Y-82750000D01*
X113106856Y-81050000D01*
X113082451Y-80920298D01*
X113005797Y-80801175D01*
X112888837Y-80721259D01*
X112750000Y-80693144D01*
X111050000Y-80693144D01*
X110920298Y-80717549D01*
X110801175Y-80794203D01*
X110721259Y-80911163D01*
X110693144Y-81050000D01*
X110425000Y-81050000D01*
X110425000Y-76820000D01*
X110676491Y-76820000D01*
X110767836Y-77279220D01*
X111027963Y-77668528D01*
X111417271Y-77928655D01*
X111876491Y-78020000D01*
X111923509Y-78020000D01*
X112382729Y-77928655D01*
X112545013Y-77820220D01*
X167285808Y-77820220D01*
X167454743Y-78229074D01*
X167767280Y-78542158D01*
X168175839Y-78711806D01*
X168618220Y-78712192D01*
X169027074Y-78543257D01*
X169340158Y-78230720D01*
X169509806Y-77822161D01*
X169510192Y-77379780D01*
X169341257Y-76970926D01*
X169028720Y-76657842D01*
X168620161Y-76488194D01*
X168177780Y-76487808D01*
X167768926Y-76656743D01*
X167455842Y-76969280D01*
X167286194Y-77377839D01*
X167285808Y-77820220D01*
X112545013Y-77820220D01*
X112772037Y-77668528D01*
X113032164Y-77279220D01*
X113123509Y-76820000D01*
X113105354Y-76728726D01*
X124949888Y-76728726D01*
X125048636Y-76967714D01*
X125231324Y-77150722D01*
X125470140Y-77249887D01*
X125728726Y-77250112D01*
X125967714Y-77151364D01*
X126150722Y-76968676D01*
X126249887Y-76729860D01*
X126250112Y-76471274D01*
X126151364Y-76232286D01*
X126147811Y-76228726D01*
X166249888Y-76228726D01*
X166348636Y-76467714D01*
X166531324Y-76650722D01*
X166770140Y-76749887D01*
X167028726Y-76750112D01*
X167267714Y-76651364D01*
X167450722Y-76468676D01*
X167549887Y-76229860D01*
X167550112Y-75971274D01*
X167451364Y-75732286D01*
X167268676Y-75549278D01*
X167029860Y-75450113D01*
X166771274Y-75449888D01*
X166532286Y-75548636D01*
X166349278Y-75731324D01*
X166250113Y-75970140D01*
X166249888Y-76228726D01*
X126147811Y-76228726D01*
X125968676Y-76049278D01*
X125729860Y-75950113D01*
X125471274Y-75949888D01*
X125232286Y-76048636D01*
X125049278Y-76231324D01*
X124950113Y-76470140D01*
X124949888Y-76728726D01*
X113105354Y-76728726D01*
X113032164Y-76360780D01*
X112772037Y-75971472D01*
X112382729Y-75711345D01*
X111923509Y-75620000D01*
X111876491Y-75620000D01*
X111417271Y-75711345D01*
X111027963Y-75971472D01*
X110767836Y-76360780D01*
X110676491Y-76820000D01*
X110425000Y-76820000D01*
X110425000Y-74280000D01*
X110676491Y-74280000D01*
X110767836Y-74739220D01*
X111027963Y-75128528D01*
X111417271Y-75388655D01*
X111876491Y-75480000D01*
X111923509Y-75480000D01*
X112382729Y-75388655D01*
X112772037Y-75128528D01*
X113032164Y-74739220D01*
X113123509Y-74280000D01*
X113073528Y-74028726D01*
X119999888Y-74028726D01*
X120098636Y-74267714D01*
X120281324Y-74450722D01*
X120386339Y-74494328D01*
X120349278Y-74531324D01*
X120250113Y-74770140D01*
X120249888Y-75028726D01*
X120348636Y-75267714D01*
X120386451Y-75305596D01*
X120282286Y-75348636D01*
X120099278Y-75531324D01*
X120000113Y-75770140D01*
X119999888Y-76028726D01*
X120098636Y-76267714D01*
X120281324Y-76450722D01*
X120520140Y-76549887D01*
X120778726Y-76550112D01*
X121017714Y-76451364D01*
X121200722Y-76268676D01*
X121299887Y-76029860D01*
X121300112Y-75771274D01*
X121201364Y-75532286D01*
X121163549Y-75494404D01*
X121267714Y-75451364D01*
X121450722Y-75268676D01*
X121549887Y-75029860D01*
X121549887Y-75028726D01*
X137149888Y-75028726D01*
X137248636Y-75267714D01*
X137431324Y-75450722D01*
X137670140Y-75549887D01*
X137928726Y-75550112D01*
X138167714Y-75451364D01*
X138339157Y-75280220D01*
X169825808Y-75280220D01*
X169994743Y-75689074D01*
X170307280Y-76002158D01*
X170715839Y-76171806D01*
X171158220Y-76172192D01*
X171567074Y-76003257D01*
X171880158Y-75690720D01*
X172049806Y-75282161D01*
X172050192Y-74839780D01*
X171881257Y-74430926D01*
X171568720Y-74117842D01*
X171160161Y-73948194D01*
X170717780Y-73947808D01*
X170308926Y-74116743D01*
X169995842Y-74429280D01*
X169826194Y-74837839D01*
X169825808Y-75280220D01*
X138339157Y-75280220D01*
X138350722Y-75268676D01*
X138449887Y-75029860D01*
X138450112Y-74771274D01*
X138351364Y-74532286D01*
X138168676Y-74349278D01*
X137929860Y-74250113D01*
X137671274Y-74249888D01*
X137432286Y-74348636D01*
X137249278Y-74531324D01*
X137150113Y-74770140D01*
X137149888Y-75028726D01*
X121549887Y-75028726D01*
X121550112Y-74771274D01*
X121451364Y-74532286D01*
X121268676Y-74349278D01*
X121163661Y-74305672D01*
X121200722Y-74268676D01*
X121299887Y-74029860D01*
X121300112Y-73771274D01*
X121201364Y-73532286D01*
X121197811Y-73528726D01*
X148749888Y-73528726D01*
X148848636Y-73767714D01*
X149031324Y-73950722D01*
X149270140Y-74049887D01*
X149528726Y-74050112D01*
X149767714Y-73951364D01*
X149950722Y-73768676D01*
X150049887Y-73529860D01*
X150049887Y-73528726D01*
X162749888Y-73528726D01*
X162848636Y-73767714D01*
X163031324Y-73950722D01*
X163270140Y-74049887D01*
X163528726Y-74050112D01*
X163580483Y-74028726D01*
X166249888Y-74028726D01*
X166348636Y-74267714D01*
X166531324Y-74450722D01*
X166770140Y-74549887D01*
X167028726Y-74550112D01*
X167267714Y-74451364D01*
X167450722Y-74268676D01*
X167549887Y-74029860D01*
X167550112Y-73771274D01*
X167451364Y-73532286D01*
X167268676Y-73349278D01*
X167029860Y-73250113D01*
X166771274Y-73249888D01*
X166532286Y-73348636D01*
X166349278Y-73531324D01*
X166250113Y-73770140D01*
X166249888Y-74028726D01*
X163580483Y-74028726D01*
X163767714Y-73951364D01*
X163950722Y-73768676D01*
X164049887Y-73529860D01*
X164050112Y-73271274D01*
X163951364Y-73032286D01*
X163768676Y-72849278D01*
X163529860Y-72750113D01*
X163271274Y-72749888D01*
X163032286Y-72848636D01*
X162849278Y-73031324D01*
X162750113Y-73270140D01*
X162749888Y-73528726D01*
X150049887Y-73528726D01*
X150050112Y-73271274D01*
X149951364Y-73032286D01*
X149768676Y-72849278D01*
X149529860Y-72750113D01*
X149271274Y-72749888D01*
X149032286Y-72848636D01*
X148849278Y-73031324D01*
X148750113Y-73270140D01*
X148749888Y-73528726D01*
X121197811Y-73528726D01*
X121018676Y-73349278D01*
X120779860Y-73250113D01*
X120521274Y-73249888D01*
X120282286Y-73348636D01*
X120099278Y-73531324D01*
X120000113Y-73770140D01*
X119999888Y-74028726D01*
X113073528Y-74028726D01*
X113032164Y-73820780D01*
X112772037Y-73431472D01*
X112382729Y-73171345D01*
X111923509Y-73080000D01*
X111876491Y-73080000D01*
X111417271Y-73171345D01*
X111027963Y-73431472D01*
X110767836Y-73820780D01*
X110676491Y-74280000D01*
X110425000Y-74280000D01*
X110425000Y-71740000D01*
X110676491Y-71740000D01*
X110767836Y-72199220D01*
X111027963Y-72588528D01*
X111417271Y-72848655D01*
X111876491Y-72940000D01*
X111923509Y-72940000D01*
X112382729Y-72848655D01*
X112545013Y-72740220D01*
X167285808Y-72740220D01*
X167454743Y-73149074D01*
X167767280Y-73462158D01*
X168175839Y-73631806D01*
X168618220Y-73632192D01*
X169027074Y-73463257D01*
X169340158Y-73150720D01*
X169509806Y-72742161D01*
X169510192Y-72299780D01*
X169341257Y-71890926D01*
X169028720Y-71577842D01*
X168620161Y-71408194D01*
X168177780Y-71407808D01*
X167768926Y-71576743D01*
X167455842Y-71889280D01*
X167286194Y-72297839D01*
X167285808Y-72740220D01*
X112545013Y-72740220D01*
X112772037Y-72588528D01*
X113032164Y-72199220D01*
X113066077Y-72028726D01*
X140249888Y-72028726D01*
X140348636Y-72267714D01*
X140531324Y-72450722D01*
X140770140Y-72549887D01*
X141028726Y-72550112D01*
X141267714Y-72451364D01*
X141450722Y-72268676D01*
X141549887Y-72029860D01*
X141549887Y-72028726D01*
X143249888Y-72028726D01*
X143348636Y-72267714D01*
X143531324Y-72450722D01*
X143770140Y-72549887D01*
X144028726Y-72550112D01*
X144267714Y-72451364D01*
X144450722Y-72268676D01*
X144549887Y-72029860D01*
X144550112Y-71771274D01*
X144451364Y-71532286D01*
X144268676Y-71349278D01*
X144029860Y-71250113D01*
X143771274Y-71249888D01*
X143532286Y-71348636D01*
X143349278Y-71531324D01*
X143250113Y-71770140D01*
X143249888Y-72028726D01*
X141549887Y-72028726D01*
X141550112Y-71771274D01*
X141451364Y-71532286D01*
X141268676Y-71349278D01*
X141029860Y-71250113D01*
X140771274Y-71249888D01*
X140532286Y-71348636D01*
X140349278Y-71531324D01*
X140250113Y-71770140D01*
X140249888Y-72028726D01*
X113066077Y-72028726D01*
X113123509Y-71740000D01*
X113032164Y-71280780D01*
X112772037Y-70891472D01*
X112382729Y-70631345D01*
X111923509Y-70540000D01*
X111876491Y-70540000D01*
X111417271Y-70631345D01*
X111027963Y-70891472D01*
X110767836Y-71280780D01*
X110676491Y-71740000D01*
X110425000Y-71740000D01*
X110425000Y-69200000D01*
X110676491Y-69200000D01*
X110767836Y-69659220D01*
X111027963Y-70048528D01*
X111417271Y-70308655D01*
X111876491Y-70400000D01*
X111923509Y-70400000D01*
X112382729Y-70308655D01*
X112772037Y-70048528D01*
X113032164Y-69659220D01*
X113123509Y-69200000D01*
X113032164Y-68740780D01*
X112772037Y-68351472D01*
X112382729Y-68091345D01*
X112067924Y-68028726D01*
X119999888Y-68028726D01*
X120098636Y-68267714D01*
X120281324Y-68450722D01*
X120386339Y-68494328D01*
X120349278Y-68531324D01*
X120250113Y-68770140D01*
X120249888Y-69028726D01*
X120348636Y-69267714D01*
X120386451Y-69305596D01*
X120282286Y-69348636D01*
X120099278Y-69531324D01*
X120000113Y-69770140D01*
X119999888Y-70028726D01*
X120098636Y-70267714D01*
X120281324Y-70450722D01*
X120520140Y-70549887D01*
X120778726Y-70550112D01*
X121017714Y-70451364D01*
X121200722Y-70268676D01*
X121299887Y-70029860D01*
X121300112Y-69771274D01*
X121201364Y-69532286D01*
X121163549Y-69494404D01*
X121267714Y-69451364D01*
X121450722Y-69268676D01*
X121549887Y-69029860D01*
X121550112Y-68771274D01*
X121451364Y-68532286D01*
X121268676Y-68349278D01*
X121163661Y-68305672D01*
X121200722Y-68268676D01*
X121299887Y-68029860D01*
X121300112Y-67771274D01*
X121282532Y-67728726D01*
X142749888Y-67728726D01*
X142848636Y-67967714D01*
X143031324Y-68150722D01*
X143270140Y-68249887D01*
X143528726Y-68250112D01*
X143767714Y-68151364D01*
X143950722Y-67968676D01*
X144049887Y-67729860D01*
X144049887Y-67728726D01*
X146049888Y-67728726D01*
X146148636Y-67967714D01*
X146331324Y-68150722D01*
X146570140Y-68249887D01*
X146828726Y-68250112D01*
X147067714Y-68151364D01*
X147250722Y-67968676D01*
X147349887Y-67729860D01*
X147349887Y-67728726D01*
X148249888Y-67728726D01*
X148348636Y-67967714D01*
X148531324Y-68150722D01*
X148770140Y-68249887D01*
X149028726Y-68250112D01*
X149267714Y-68151364D01*
X149450722Y-67968676D01*
X149549887Y-67729860D01*
X149549887Y-67728726D01*
X156249888Y-67728726D01*
X156348636Y-67967714D01*
X156531324Y-68150722D01*
X156770140Y-68249887D01*
X157028726Y-68250112D01*
X157267714Y-68151364D01*
X157450722Y-67968676D01*
X157549887Y-67729860D01*
X157549887Y-67728726D01*
X160749888Y-67728726D01*
X160848636Y-67967714D01*
X161031324Y-68150722D01*
X161270140Y-68249887D01*
X161528726Y-68250112D01*
X161767714Y-68151364D01*
X161950158Y-67969239D01*
X162131324Y-68150722D01*
X162370140Y-68249887D01*
X162628726Y-68250112D01*
X162867714Y-68151364D01*
X163050722Y-67968676D01*
X163149887Y-67729860D01*
X163150112Y-67471274D01*
X163051364Y-67232286D01*
X162868676Y-67049278D01*
X162629860Y-66950113D01*
X162371274Y-66949888D01*
X162132286Y-67048636D01*
X161949842Y-67230761D01*
X161768676Y-67049278D01*
X161529860Y-66950113D01*
X161271274Y-66949888D01*
X161032286Y-67048636D01*
X160849278Y-67231324D01*
X160750113Y-67470140D01*
X160749888Y-67728726D01*
X157549887Y-67728726D01*
X157550112Y-67471274D01*
X157451364Y-67232286D01*
X157268676Y-67049278D01*
X157029860Y-66950113D01*
X156771274Y-66949888D01*
X156532286Y-67048636D01*
X156349278Y-67231324D01*
X156250113Y-67470140D01*
X156249888Y-67728726D01*
X149549887Y-67728726D01*
X149550112Y-67471274D01*
X149451364Y-67232286D01*
X149268676Y-67049278D01*
X149029860Y-66950113D01*
X148771274Y-66949888D01*
X148532286Y-67048636D01*
X148349278Y-67231324D01*
X148250113Y-67470140D01*
X148249888Y-67728726D01*
X147349887Y-67728726D01*
X147350112Y-67471274D01*
X147251364Y-67232286D01*
X147068676Y-67049278D01*
X146829860Y-66950113D01*
X146571274Y-66949888D01*
X146332286Y-67048636D01*
X146149278Y-67231324D01*
X146050113Y-67470140D01*
X146049888Y-67728726D01*
X144049887Y-67728726D01*
X144050112Y-67471274D01*
X143951364Y-67232286D01*
X143768676Y-67049278D01*
X143529860Y-66950113D01*
X143271274Y-66949888D01*
X143032286Y-67048636D01*
X142849278Y-67231324D01*
X142750113Y-67470140D01*
X142749888Y-67728726D01*
X121282532Y-67728726D01*
X121201364Y-67532286D01*
X121018676Y-67349278D01*
X120779860Y-67250113D01*
X120521274Y-67249888D01*
X120282286Y-67348636D01*
X120099278Y-67531324D01*
X120000113Y-67770140D01*
X119999888Y-68028726D01*
X112067924Y-68028726D01*
X111923509Y-68000000D01*
X111876491Y-68000000D01*
X111417271Y-68091345D01*
X111027963Y-68351472D01*
X110767836Y-68740780D01*
X110676491Y-69200000D01*
X110425000Y-69200000D01*
X110425000Y-63915883D01*
X111399637Y-63915883D01*
X111718669Y-64688000D01*
X112308893Y-65279255D01*
X113080452Y-65599634D01*
X113915883Y-65600363D01*
X114688000Y-65281331D01*
X115279255Y-64691107D01*
X115599634Y-63919548D01*
X115599662Y-63886400D01*
X117169544Y-63886400D01*
X117169544Y-65613600D01*
X117193949Y-65743302D01*
X117270603Y-65862425D01*
X117387563Y-65942341D01*
X117526400Y-65970456D01*
X119253600Y-65970456D01*
X119383302Y-65946051D01*
X119502425Y-65869397D01*
X119582341Y-65752437D01*
X119610456Y-65613600D01*
X119610456Y-64726224D01*
X119716400Y-64726224D01*
X119716400Y-64773776D01*
X119808780Y-65238201D01*
X120071855Y-65631921D01*
X120465575Y-65894996D01*
X120930000Y-65987376D01*
X121394425Y-65894996D01*
X121788145Y-65631921D01*
X122051220Y-65238201D01*
X122143600Y-64773776D01*
X122143600Y-64726224D01*
X122256400Y-64726224D01*
X122256400Y-64773776D01*
X122348780Y-65238201D01*
X122611855Y-65631921D01*
X123005575Y-65894996D01*
X123470000Y-65987376D01*
X123934425Y-65894996D01*
X124328145Y-65631921D01*
X124591220Y-65238201D01*
X124683600Y-64773776D01*
X124683600Y-64726224D01*
X124796400Y-64726224D01*
X124796400Y-64773776D01*
X124888780Y-65238201D01*
X125151855Y-65631921D01*
X125545575Y-65894996D01*
X126010000Y-65987376D01*
X126474425Y-65894996D01*
X126868145Y-65631921D01*
X127131220Y-65238201D01*
X127223600Y-64773776D01*
X127223600Y-64726224D01*
X127336400Y-64726224D01*
X127336400Y-64773776D01*
X127428780Y-65238201D01*
X127691855Y-65631921D01*
X128085575Y-65894996D01*
X128550000Y-65987376D01*
X129014425Y-65894996D01*
X129408145Y-65631921D01*
X129671220Y-65238201D01*
X129763600Y-64773776D01*
X129763600Y-64726224D01*
X129876400Y-64726224D01*
X129876400Y-64773776D01*
X129968780Y-65238201D01*
X130231855Y-65631921D01*
X130625575Y-65894996D01*
X131090000Y-65987376D01*
X131554425Y-65894996D01*
X131948145Y-65631921D01*
X132211220Y-65238201D01*
X132303600Y-64773776D01*
X132303600Y-64726224D01*
X132416400Y-64726224D01*
X132416400Y-64773776D01*
X132508780Y-65238201D01*
X132771855Y-65631921D01*
X133165575Y-65894996D01*
X133630000Y-65987376D01*
X134094425Y-65894996D01*
X134488145Y-65631921D01*
X134751220Y-65238201D01*
X134843600Y-64773776D01*
X134843600Y-64726224D01*
X134956400Y-64726224D01*
X134956400Y-64773776D01*
X135048780Y-65238201D01*
X135311855Y-65631921D01*
X135705575Y-65894996D01*
X136170000Y-65987376D01*
X136634425Y-65894996D01*
X137028145Y-65631921D01*
X137291220Y-65238201D01*
X137383600Y-64773776D01*
X137383600Y-64726224D01*
X140036400Y-64726224D01*
X140036400Y-64773776D01*
X140128780Y-65238201D01*
X140391855Y-65631921D01*
X140785575Y-65894996D01*
X141250000Y-65987376D01*
X141714425Y-65894996D01*
X142108145Y-65631921D01*
X142371220Y-65238201D01*
X142463600Y-64773776D01*
X142463600Y-64726224D01*
X142576400Y-64726224D01*
X142576400Y-64773776D01*
X142668780Y-65238201D01*
X142931855Y-65631921D01*
X143325575Y-65894996D01*
X143790000Y-65987376D01*
X144254425Y-65894996D01*
X144648145Y-65631921D01*
X144911220Y-65238201D01*
X145003600Y-64773776D01*
X145003600Y-64726224D01*
X145116400Y-64726224D01*
X145116400Y-64773776D01*
X145208780Y-65238201D01*
X145471855Y-65631921D01*
X145865575Y-65894996D01*
X146330000Y-65987376D01*
X146794425Y-65894996D01*
X147188145Y-65631921D01*
X147451220Y-65238201D01*
X147543600Y-64773776D01*
X147543600Y-64726224D01*
X147656400Y-64726224D01*
X147656400Y-64773776D01*
X147748780Y-65238201D01*
X148011855Y-65631921D01*
X148405575Y-65894996D01*
X148870000Y-65987376D01*
X149334425Y-65894996D01*
X149728145Y-65631921D01*
X149991220Y-65238201D01*
X150083600Y-64773776D01*
X150083600Y-64726224D01*
X150196400Y-64726224D01*
X150196400Y-64773776D01*
X150288780Y-65238201D01*
X150551855Y-65631921D01*
X150945575Y-65894996D01*
X151410000Y-65987376D01*
X151874425Y-65894996D01*
X152268145Y-65631921D01*
X152531220Y-65238201D01*
X152623600Y-64773776D01*
X152623600Y-64726224D01*
X152736400Y-64726224D01*
X152736400Y-64773776D01*
X152828780Y-65238201D01*
X153091855Y-65631921D01*
X153485575Y-65894996D01*
X153950000Y-65987376D01*
X154414425Y-65894996D01*
X154808145Y-65631921D01*
X155071220Y-65238201D01*
X155163600Y-64773776D01*
X155163600Y-64726224D01*
X155276400Y-64726224D01*
X155276400Y-64773776D01*
X155368780Y-65238201D01*
X155631855Y-65631921D01*
X156025575Y-65894996D01*
X156490000Y-65987376D01*
X156954425Y-65894996D01*
X157348145Y-65631921D01*
X157611220Y-65238201D01*
X157703600Y-64773776D01*
X157703600Y-64726224D01*
X157816400Y-64726224D01*
X157816400Y-64773776D01*
X157908780Y-65238201D01*
X158171855Y-65631921D01*
X158565575Y-65894996D01*
X159030000Y-65987376D01*
X159494425Y-65894996D01*
X159888145Y-65631921D01*
X160151220Y-65238201D01*
X160243600Y-64773776D01*
X160243600Y-64726224D01*
X160356400Y-64726224D01*
X160356400Y-64773776D01*
X160448780Y-65238201D01*
X160711855Y-65631921D01*
X161105575Y-65894996D01*
X161570000Y-65987376D01*
X162034425Y-65894996D01*
X162352973Y-65682149D01*
X162195039Y-65839807D01*
X162095874Y-66078623D01*
X162095649Y-66337209D01*
X162194397Y-66576197D01*
X162377085Y-66759205D01*
X162615901Y-66858370D01*
X162874487Y-66858595D01*
X163113475Y-66759847D01*
X163296483Y-66577159D01*
X163395648Y-66338343D01*
X163395873Y-66079757D01*
X163297125Y-65840769D01*
X163114437Y-65657761D01*
X162875621Y-65558596D01*
X162617035Y-65558371D01*
X162410505Y-65643708D01*
X162428145Y-65631921D01*
X162691220Y-65238201D01*
X162783600Y-64773776D01*
X162783600Y-64726224D01*
X162896400Y-64726224D01*
X162896400Y-64773776D01*
X162988780Y-65238201D01*
X163251855Y-65631921D01*
X163645575Y-65894996D01*
X164110000Y-65987376D01*
X164574425Y-65894996D01*
X164770077Y-65764266D01*
X164649087Y-65885044D01*
X164549922Y-66123860D01*
X164549697Y-66382446D01*
X164648445Y-66621434D01*
X164831133Y-66804442D01*
X165069949Y-66903607D01*
X165328535Y-66903832D01*
X165567523Y-66805084D01*
X165750531Y-66622396D01*
X165849696Y-66383580D01*
X165849921Y-66124994D01*
X165751173Y-65886006D01*
X165568485Y-65702998D01*
X165329669Y-65603833D01*
X165071083Y-65603608D01*
X164912376Y-65669184D01*
X164968145Y-65631921D01*
X165231220Y-65238201D01*
X165323600Y-64773776D01*
X165323600Y-64726224D01*
X165436400Y-64726224D01*
X165436400Y-64773776D01*
X165528780Y-65238201D01*
X165791855Y-65631921D01*
X166185575Y-65894996D01*
X166650000Y-65987376D01*
X167114425Y-65894996D01*
X167508145Y-65631921D01*
X167771220Y-65238201D01*
X167863600Y-64773776D01*
X167863600Y-64726224D01*
X167771220Y-64261799D01*
X167540087Y-63915883D01*
X169399637Y-63915883D01*
X169718669Y-64688000D01*
X170308893Y-65279255D01*
X171080452Y-65599634D01*
X171915883Y-65600363D01*
X172000073Y-65565576D01*
X171999888Y-65778726D01*
X172098636Y-66017714D01*
X172281324Y-66200722D01*
X172520140Y-66299887D01*
X172778726Y-66300112D01*
X173017714Y-66201364D01*
X173200722Y-66018676D01*
X173299887Y-65779860D01*
X173300112Y-65521274D01*
X173201364Y-65282286D01*
X173018676Y-65099278D01*
X172913938Y-65055787D01*
X173279255Y-64691107D01*
X173599634Y-63919548D01*
X173600363Y-63084117D01*
X173281331Y-62312000D01*
X172691107Y-61720745D01*
X171919548Y-61400366D01*
X171084117Y-61399637D01*
X170312000Y-61718669D01*
X169720745Y-62308893D01*
X169400366Y-63080452D01*
X169399637Y-63915883D01*
X167540087Y-63915883D01*
X167508145Y-63868079D01*
X167114425Y-63605004D01*
X166650000Y-63512624D01*
X166185575Y-63605004D01*
X165791855Y-63868079D01*
X165528780Y-64261799D01*
X165436400Y-64726224D01*
X165323600Y-64726224D01*
X165231220Y-64261799D01*
X164968145Y-63868079D01*
X164574425Y-63605004D01*
X164110000Y-63512624D01*
X163645575Y-63605004D01*
X163251855Y-63868079D01*
X162988780Y-64261799D01*
X162896400Y-64726224D01*
X162783600Y-64726224D01*
X162691220Y-64261799D01*
X162428145Y-63868079D01*
X162034425Y-63605004D01*
X161570000Y-63512624D01*
X161105575Y-63605004D01*
X160711855Y-63868079D01*
X160448780Y-64261799D01*
X160356400Y-64726224D01*
X160243600Y-64726224D01*
X160151220Y-64261799D01*
X159888145Y-63868079D01*
X159494425Y-63605004D01*
X159030000Y-63512624D01*
X158565575Y-63605004D01*
X158171855Y-63868079D01*
X157908780Y-64261799D01*
X157816400Y-64726224D01*
X157703600Y-64726224D01*
X157611220Y-64261799D01*
X157348145Y-63868079D01*
X156954425Y-63605004D01*
X156490000Y-63512624D01*
X156025575Y-63605004D01*
X155631855Y-63868079D01*
X155368780Y-64261799D01*
X155276400Y-64726224D01*
X155163600Y-64726224D01*
X155071220Y-64261799D01*
X154808145Y-63868079D01*
X154414425Y-63605004D01*
X153950000Y-63512624D01*
X153485575Y-63605004D01*
X153091855Y-63868079D01*
X152828780Y-64261799D01*
X152736400Y-64726224D01*
X152623600Y-64726224D01*
X152531220Y-64261799D01*
X152268145Y-63868079D01*
X151874425Y-63605004D01*
X151410000Y-63512624D01*
X150945575Y-63605004D01*
X150551855Y-63868079D01*
X150288780Y-64261799D01*
X150196400Y-64726224D01*
X150083600Y-64726224D01*
X149991220Y-64261799D01*
X149728145Y-63868079D01*
X149334425Y-63605004D01*
X148870000Y-63512624D01*
X148405575Y-63605004D01*
X148011855Y-63868079D01*
X147748780Y-64261799D01*
X147656400Y-64726224D01*
X147543600Y-64726224D01*
X147451220Y-64261799D01*
X147188145Y-63868079D01*
X146794425Y-63605004D01*
X146330000Y-63512624D01*
X145865575Y-63605004D01*
X145471855Y-63868079D01*
X145208780Y-64261799D01*
X145116400Y-64726224D01*
X145003600Y-64726224D01*
X144911220Y-64261799D01*
X144648145Y-63868079D01*
X144254425Y-63605004D01*
X143790000Y-63512624D01*
X143325575Y-63605004D01*
X142931855Y-63868079D01*
X142668780Y-64261799D01*
X142576400Y-64726224D01*
X142463600Y-64726224D01*
X142371220Y-64261799D01*
X142108145Y-63868079D01*
X141714425Y-63605004D01*
X141250000Y-63512624D01*
X140785575Y-63605004D01*
X140391855Y-63868079D01*
X140128780Y-64261799D01*
X140036400Y-64726224D01*
X137383600Y-64726224D01*
X137291220Y-64261799D01*
X137028145Y-63868079D01*
X136634425Y-63605004D01*
X136170000Y-63512624D01*
X135705575Y-63605004D01*
X135311855Y-63868079D01*
X135048780Y-64261799D01*
X134956400Y-64726224D01*
X134843600Y-64726224D01*
X134751220Y-64261799D01*
X134488145Y-63868079D01*
X134094425Y-63605004D01*
X133630000Y-63512624D01*
X133165575Y-63605004D01*
X132771855Y-63868079D01*
X132508780Y-64261799D01*
X132416400Y-64726224D01*
X132303600Y-64726224D01*
X132211220Y-64261799D01*
X131948145Y-63868079D01*
X131554425Y-63605004D01*
X131090000Y-63512624D01*
X130625575Y-63605004D01*
X130231855Y-63868079D01*
X129968780Y-64261799D01*
X129876400Y-64726224D01*
X129763600Y-64726224D01*
X129671220Y-64261799D01*
X129408145Y-63868079D01*
X129014425Y-63605004D01*
X128550000Y-63512624D01*
X128085575Y-63605004D01*
X127691855Y-63868079D01*
X127428780Y-64261799D01*
X127336400Y-64726224D01*
X127223600Y-64726224D01*
X127131220Y-64261799D01*
X126868145Y-63868079D01*
X126474425Y-63605004D01*
X126010000Y-63512624D01*
X125545575Y-63605004D01*
X125151855Y-63868079D01*
X124888780Y-64261799D01*
X124796400Y-64726224D01*
X124683600Y-64726224D01*
X124591220Y-64261799D01*
X124328145Y-63868079D01*
X123934425Y-63605004D01*
X123470000Y-63512624D01*
X123005575Y-63605004D01*
X122611855Y-63868079D01*
X122348780Y-64261799D01*
X122256400Y-64726224D01*
X122143600Y-64726224D01*
X122051220Y-64261799D01*
X121788145Y-63868079D01*
X121394425Y-63605004D01*
X120930000Y-63512624D01*
X120465575Y-63605004D01*
X120071855Y-63868079D01*
X119808780Y-64261799D01*
X119716400Y-64726224D01*
X119610456Y-64726224D01*
X119610456Y-63886400D01*
X119586051Y-63756698D01*
X119509397Y-63637575D01*
X119392437Y-63557659D01*
X119253600Y-63529544D01*
X117526400Y-63529544D01*
X117396698Y-63553949D01*
X117277575Y-63630603D01*
X117197659Y-63747563D01*
X117169544Y-63886400D01*
X115599662Y-63886400D01*
X115600363Y-63084117D01*
X115281331Y-62312000D01*
X115155775Y-62186224D01*
X117176400Y-62186224D01*
X117176400Y-62233776D01*
X117268780Y-62698201D01*
X117531855Y-63091921D01*
X117925575Y-63354996D01*
X118390000Y-63447376D01*
X118854425Y-63354996D01*
X119248145Y-63091921D01*
X119511220Y-62698201D01*
X119603600Y-62233776D01*
X119603600Y-62186224D01*
X119716400Y-62186224D01*
X119716400Y-62233776D01*
X119808780Y-62698201D01*
X120071855Y-63091921D01*
X120465575Y-63354996D01*
X120930000Y-63447376D01*
X121394425Y-63354996D01*
X121788145Y-63091921D01*
X122051220Y-62698201D01*
X122143600Y-62233776D01*
X122143600Y-62186224D01*
X122256400Y-62186224D01*
X122256400Y-62233776D01*
X122348780Y-62698201D01*
X122611855Y-63091921D01*
X123005575Y-63354996D01*
X123470000Y-63447376D01*
X123934425Y-63354996D01*
X124328145Y-63091921D01*
X124591220Y-62698201D01*
X124683600Y-62233776D01*
X124683600Y-62186224D01*
X124796400Y-62186224D01*
X124796400Y-62233776D01*
X124888780Y-62698201D01*
X125151855Y-63091921D01*
X125545575Y-63354996D01*
X126010000Y-63447376D01*
X126474425Y-63354996D01*
X126868145Y-63091921D01*
X127131220Y-62698201D01*
X127223600Y-62233776D01*
X127223600Y-62186224D01*
X127336400Y-62186224D01*
X127336400Y-62233776D01*
X127428780Y-62698201D01*
X127691855Y-63091921D01*
X128085575Y-63354996D01*
X128550000Y-63447376D01*
X129014425Y-63354996D01*
X129408145Y-63091921D01*
X129671220Y-62698201D01*
X129763600Y-62233776D01*
X129763600Y-62186224D01*
X129876400Y-62186224D01*
X129876400Y-62233776D01*
X129968780Y-62698201D01*
X130231855Y-63091921D01*
X130625575Y-63354996D01*
X131090000Y-63447376D01*
X131554425Y-63354996D01*
X131948145Y-63091921D01*
X132211220Y-62698201D01*
X132303600Y-62233776D01*
X132303600Y-62186224D01*
X132416400Y-62186224D01*
X132416400Y-62233776D01*
X132508780Y-62698201D01*
X132771855Y-63091921D01*
X133165575Y-63354996D01*
X133630000Y-63447376D01*
X134094425Y-63354996D01*
X134488145Y-63091921D01*
X134751220Y-62698201D01*
X134843600Y-62233776D01*
X134843600Y-62186224D01*
X134956400Y-62186224D01*
X134956400Y-62233776D01*
X135048780Y-62698201D01*
X135311855Y-63091921D01*
X135705575Y-63354996D01*
X136170000Y-63447376D01*
X136634425Y-63354996D01*
X137028145Y-63091921D01*
X137291220Y-62698201D01*
X137383600Y-62233776D01*
X137383600Y-62186224D01*
X137496400Y-62186224D01*
X137496400Y-62233776D01*
X137588780Y-62698201D01*
X137851855Y-63091921D01*
X138245575Y-63354996D01*
X138710000Y-63447376D01*
X139174425Y-63354996D01*
X139568145Y-63091921D01*
X139831220Y-62698201D01*
X139923600Y-62233776D01*
X139923600Y-62186224D01*
X140036400Y-62186224D01*
X140036400Y-62233776D01*
X140128780Y-62698201D01*
X140391855Y-63091921D01*
X140785575Y-63354996D01*
X141250000Y-63447376D01*
X141714425Y-63354996D01*
X142108145Y-63091921D01*
X142371220Y-62698201D01*
X142463600Y-62233776D01*
X142463600Y-62186224D01*
X142576400Y-62186224D01*
X142576400Y-62233776D01*
X142668780Y-62698201D01*
X142931855Y-63091921D01*
X143325575Y-63354996D01*
X143790000Y-63447376D01*
X144254425Y-63354996D01*
X144648145Y-63091921D01*
X144911220Y-62698201D01*
X145003600Y-62233776D01*
X145003600Y-62186224D01*
X145116400Y-62186224D01*
X145116400Y-62233776D01*
X145208780Y-62698201D01*
X145471855Y-63091921D01*
X145865575Y-63354996D01*
X146330000Y-63447376D01*
X146794425Y-63354996D01*
X147188145Y-63091921D01*
X147451220Y-62698201D01*
X147543600Y-62233776D01*
X147543600Y-62186224D01*
X147656400Y-62186224D01*
X147656400Y-62233776D01*
X147748780Y-62698201D01*
X148011855Y-63091921D01*
X148405575Y-63354996D01*
X148870000Y-63447376D01*
X149334425Y-63354996D01*
X149728145Y-63091921D01*
X149991220Y-62698201D01*
X150083600Y-62233776D01*
X150083600Y-62186224D01*
X150196400Y-62186224D01*
X150196400Y-62233776D01*
X150288780Y-62698201D01*
X150551855Y-63091921D01*
X150945575Y-63354996D01*
X151410000Y-63447376D01*
X151874425Y-63354996D01*
X152268145Y-63091921D01*
X152531220Y-62698201D01*
X152623600Y-62233776D01*
X152623600Y-62186224D01*
X152736400Y-62186224D01*
X152736400Y-62233776D01*
X152828780Y-62698201D01*
X153091855Y-63091921D01*
X153485575Y-63354996D01*
X153950000Y-63447376D01*
X154414425Y-63354996D01*
X154808145Y-63091921D01*
X155071220Y-62698201D01*
X155163600Y-62233776D01*
X155163600Y-62186224D01*
X155276400Y-62186224D01*
X155276400Y-62233776D01*
X155368780Y-62698201D01*
X155631855Y-63091921D01*
X156025575Y-63354996D01*
X156490000Y-63447376D01*
X156954425Y-63354996D01*
X157348145Y-63091921D01*
X157611220Y-62698201D01*
X157703600Y-62233776D01*
X157703600Y-62186224D01*
X157816400Y-62186224D01*
X157816400Y-62233776D01*
X157908780Y-62698201D01*
X158171855Y-63091921D01*
X158565575Y-63354996D01*
X159030000Y-63447376D01*
X159494425Y-63354996D01*
X159888145Y-63091921D01*
X160151220Y-62698201D01*
X160243600Y-62233776D01*
X160243600Y-62186224D01*
X160356400Y-62186224D01*
X160356400Y-62233776D01*
X160448780Y-62698201D01*
X160711855Y-63091921D01*
X161105575Y-63354996D01*
X161570000Y-63447376D01*
X162034425Y-63354996D01*
X162428145Y-63091921D01*
X162691220Y-62698201D01*
X162783600Y-62233776D01*
X162783600Y-62186224D01*
X162896400Y-62186224D01*
X162896400Y-62233776D01*
X162988780Y-62698201D01*
X163251855Y-63091921D01*
X163645575Y-63354996D01*
X164110000Y-63447376D01*
X164574425Y-63354996D01*
X164968145Y-63091921D01*
X165231220Y-62698201D01*
X165323600Y-62233776D01*
X165323600Y-62186224D01*
X165436400Y-62186224D01*
X165436400Y-62233776D01*
X165528780Y-62698201D01*
X165791855Y-63091921D01*
X166185575Y-63354996D01*
X166650000Y-63447376D01*
X167114425Y-63354996D01*
X167508145Y-63091921D01*
X167771220Y-62698201D01*
X167863600Y-62233776D01*
X167863600Y-62186224D01*
X167771220Y-61721799D01*
X167508145Y-61328079D01*
X167114425Y-61065004D01*
X166650000Y-60972624D01*
X166185575Y-61065004D01*
X165791855Y-61328079D01*
X165528780Y-61721799D01*
X165436400Y-62186224D01*
X165323600Y-62186224D01*
X165231220Y-61721799D01*
X164968145Y-61328079D01*
X164574425Y-61065004D01*
X164110000Y-60972624D01*
X163645575Y-61065004D01*
X163251855Y-61328079D01*
X162988780Y-61721799D01*
X162896400Y-62186224D01*
X162783600Y-62186224D01*
X162691220Y-61721799D01*
X162428145Y-61328079D01*
X162034425Y-61065004D01*
X161570000Y-60972624D01*
X161105575Y-61065004D01*
X160711855Y-61328079D01*
X160448780Y-61721799D01*
X160356400Y-62186224D01*
X160243600Y-62186224D01*
X160151220Y-61721799D01*
X159888145Y-61328079D01*
X159494425Y-61065004D01*
X159030000Y-60972624D01*
X158565575Y-61065004D01*
X158171855Y-61328079D01*
X157908780Y-61721799D01*
X157816400Y-62186224D01*
X157703600Y-62186224D01*
X157611220Y-61721799D01*
X157348145Y-61328079D01*
X156954425Y-61065004D01*
X156490000Y-60972624D01*
X156025575Y-61065004D01*
X155631855Y-61328079D01*
X155368780Y-61721799D01*
X155276400Y-62186224D01*
X155163600Y-62186224D01*
X155071220Y-61721799D01*
X154808145Y-61328079D01*
X154414425Y-61065004D01*
X153950000Y-60972624D01*
X153485575Y-61065004D01*
X153091855Y-61328079D01*
X152828780Y-61721799D01*
X152736400Y-62186224D01*
X152623600Y-62186224D01*
X152531220Y-61721799D01*
X152268145Y-61328079D01*
X151874425Y-61065004D01*
X151410000Y-60972624D01*
X150945575Y-61065004D01*
X150551855Y-61328079D01*
X150288780Y-61721799D01*
X150196400Y-62186224D01*
X150083600Y-62186224D01*
X149991220Y-61721799D01*
X149728145Y-61328079D01*
X149334425Y-61065004D01*
X148870000Y-60972624D01*
X148405575Y-61065004D01*
X148011855Y-61328079D01*
X147748780Y-61721799D01*
X147656400Y-62186224D01*
X147543600Y-62186224D01*
X147451220Y-61721799D01*
X147188145Y-61328079D01*
X146794425Y-61065004D01*
X146330000Y-60972624D01*
X145865575Y-61065004D01*
X145471855Y-61328079D01*
X145208780Y-61721799D01*
X145116400Y-62186224D01*
X145003600Y-62186224D01*
X144911220Y-61721799D01*
X144648145Y-61328079D01*
X144254425Y-61065004D01*
X143790000Y-60972624D01*
X143325575Y-61065004D01*
X142931855Y-61328079D01*
X142668780Y-61721799D01*
X142576400Y-62186224D01*
X142463600Y-62186224D01*
X142371220Y-61721799D01*
X142108145Y-61328079D01*
X141714425Y-61065004D01*
X141250000Y-60972624D01*
X140785575Y-61065004D01*
X140391855Y-61328079D01*
X140128780Y-61721799D01*
X140036400Y-62186224D01*
X139923600Y-62186224D01*
X139831220Y-61721799D01*
X139568145Y-61328079D01*
X139174425Y-61065004D01*
X138710000Y-60972624D01*
X138245575Y-61065004D01*
X137851855Y-61328079D01*
X137588780Y-61721799D01*
X137496400Y-62186224D01*
X137383600Y-62186224D01*
X137291220Y-61721799D01*
X137028145Y-61328079D01*
X136634425Y-61065004D01*
X136170000Y-60972624D01*
X135705575Y-61065004D01*
X135311855Y-61328079D01*
X135048780Y-61721799D01*
X134956400Y-62186224D01*
X134843600Y-62186224D01*
X134751220Y-61721799D01*
X134488145Y-61328079D01*
X134094425Y-61065004D01*
X133630000Y-60972624D01*
X133165575Y-61065004D01*
X132771855Y-61328079D01*
X132508780Y-61721799D01*
X132416400Y-62186224D01*
X132303600Y-62186224D01*
X132211220Y-61721799D01*
X131948145Y-61328079D01*
X131554425Y-61065004D01*
X131090000Y-60972624D01*
X130625575Y-61065004D01*
X130231855Y-61328079D01*
X129968780Y-61721799D01*
X129876400Y-62186224D01*
X129763600Y-62186224D01*
X129671220Y-61721799D01*
X129408145Y-61328079D01*
X129014425Y-61065004D01*
X128550000Y-60972624D01*
X128085575Y-61065004D01*
X127691855Y-61328079D01*
X127428780Y-61721799D01*
X127336400Y-62186224D01*
X127223600Y-62186224D01*
X127131220Y-61721799D01*
X126868145Y-61328079D01*
X126474425Y-61065004D01*
X126010000Y-60972624D01*
X125545575Y-61065004D01*
X125151855Y-61328079D01*
X124888780Y-61721799D01*
X124796400Y-62186224D01*
X124683600Y-62186224D01*
X124591220Y-61721799D01*
X124328145Y-61328079D01*
X123934425Y-61065004D01*
X123470000Y-60972624D01*
X123005575Y-61065004D01*
X122611855Y-61328079D01*
X122348780Y-61721799D01*
X122256400Y-62186224D01*
X122143600Y-62186224D01*
X122051220Y-61721799D01*
X121788145Y-61328079D01*
X121394425Y-61065004D01*
X120930000Y-60972624D01*
X120465575Y-61065004D01*
X120071855Y-61328079D01*
X119808780Y-61721799D01*
X119716400Y-62186224D01*
X119603600Y-62186224D01*
X119511220Y-61721799D01*
X119248145Y-61328079D01*
X118854425Y-61065004D01*
X118390000Y-60972624D01*
X117925575Y-61065004D01*
X117531855Y-61328079D01*
X117268780Y-61721799D01*
X117176400Y-62186224D01*
X115155775Y-62186224D01*
X114691107Y-61720745D01*
X113919548Y-61400366D01*
X113084117Y-61399637D01*
X112312000Y-61718669D01*
X111720745Y-62308893D01*
X111400366Y-63080452D01*
X111399637Y-63915883D01*
X110425000Y-63915883D01*
X110425000Y-63541860D01*
X110666764Y-62326434D01*
X111331534Y-61331534D01*
X112326435Y-60666763D01*
X113541860Y-60425000D01*
X171458140Y-60425000D01*
X172673566Y-60666764D01*
M02*
