G04 #@! TF.FileFunction,Soldermask,Top*
%FSLAX46Y46*%
G04 Gerber Fmt 4.6, Leading zero omitted, Abs format (unit mm)*
G04 Created by KiCad (PCBNEW 4.0.7) date 10/01/17 15:58:34*
%MOMM*%
%LPD*%
G01*
G04 APERTURE LIST*
%ADD10C,0.100000*%
%ADD11C,3.900000*%
%ADD12R,1.150000X2.200000*%
%ADD13R,2.200000X1.150000*%
%ADD14R,2.127200X2.127200*%
%ADD15O,2.127200X2.127200*%
%ADD16R,1.600000X1.600000*%
%ADD17C,1.924000*%
%ADD18R,3.900000X3.700000*%
%ADD19R,4.400000X4.400000*%
%ADD20R,2.100000X2.100000*%
%ADD21O,2.100000X2.100000*%
%ADD22R,1.700000X1.100000*%
G04 APERTURE END LIST*
D10*
D11*
X113500000Y-86500000D03*
X113500000Y-63500000D03*
X171500000Y-63500000D03*
X171500000Y-86500000D03*
D12*
X143396000Y-89024000D03*
X144496000Y-89024000D03*
X145596000Y-89024000D03*
X146696000Y-89024000D03*
X147796000Y-89024000D03*
X154896000Y-89024000D03*
X155996000Y-89024000D03*
X161696000Y-89024000D03*
X162796000Y-89024000D03*
D13*
X165296000Y-73924000D03*
X165296000Y-75024000D03*
X165296000Y-76124000D03*
X165296000Y-83224000D03*
X165296000Y-84324000D03*
D12*
X143396000Y-69224000D03*
X144496000Y-69224000D03*
X145596000Y-69224000D03*
X146696000Y-69224000D03*
X147796000Y-69224000D03*
X148896000Y-69224000D03*
X148896000Y-89024000D03*
X149996000Y-89024000D03*
X155796000Y-69224000D03*
X149996000Y-69224000D03*
X156896000Y-69224000D03*
X161396000Y-69224000D03*
X162496000Y-69224000D03*
D13*
X139496000Y-73824000D03*
X139496000Y-74924000D03*
X139496000Y-76024000D03*
X139496000Y-77124000D03*
X139496000Y-82224000D03*
X139496000Y-83324000D03*
X139496000Y-84424000D03*
X139496000Y-85524000D03*
D14*
X118390000Y-64750000D03*
D15*
X118390000Y-62210000D03*
X120930000Y-64750000D03*
X120930000Y-62210000D03*
X123470000Y-64750000D03*
X123470000Y-62210000D03*
X126010000Y-64750000D03*
X126010000Y-62210000D03*
X128550000Y-64750000D03*
X128550000Y-62210000D03*
X131090000Y-64750000D03*
X131090000Y-62210000D03*
X133630000Y-64750000D03*
X133630000Y-62210000D03*
X136170000Y-64750000D03*
X136170000Y-62210000D03*
X138710000Y-64750000D03*
X138710000Y-62210000D03*
X141250000Y-64750000D03*
X141250000Y-62210000D03*
X143790000Y-64750000D03*
X143790000Y-62210000D03*
X146330000Y-64750000D03*
X146330000Y-62210000D03*
X148870000Y-64750000D03*
X148870000Y-62210000D03*
X151410000Y-64750000D03*
X151410000Y-62210000D03*
X153950000Y-64750000D03*
X153950000Y-62210000D03*
X156490000Y-64750000D03*
X156490000Y-62210000D03*
X159030000Y-64750000D03*
X159030000Y-62210000D03*
X161570000Y-64750000D03*
X161570000Y-62210000D03*
X164110000Y-64750000D03*
X164110000Y-62210000D03*
X166650000Y-64750000D03*
X166650000Y-62210000D03*
D16*
X112250000Y-91050000D03*
X112250000Y-93250000D03*
X172750000Y-69250000D03*
X172750000Y-67050000D03*
D17*
X160778000Y-98555000D03*
X160778000Y-93475000D03*
X165858000Y-98555000D03*
X165858000Y-93475000D03*
X163318000Y-96015000D03*
X173478000Y-77600000D03*
X168398000Y-77600000D03*
X173478000Y-72520000D03*
X168398000Y-72520000D03*
X170938000Y-75060000D03*
D18*
X117700000Y-79500000D03*
X133500000Y-79500000D03*
D19*
X125600000Y-79500000D03*
D20*
X115900000Y-97900000D03*
D21*
X118440000Y-97900000D03*
D20*
X111900000Y-81900000D03*
D21*
X111900000Y-79360000D03*
X111900000Y-76820000D03*
X111900000Y-74280000D03*
X111900000Y-71740000D03*
X111900000Y-69200000D03*
D20*
X147900000Y-97900000D03*
D21*
X150440000Y-97900000D03*
D20*
X123900000Y-97900000D03*
D21*
X126440000Y-97900000D03*
D20*
X131900000Y-97900000D03*
D21*
X134440000Y-97900000D03*
D20*
X139900000Y-97900000D03*
D21*
X142440000Y-97900000D03*
D22*
X115500000Y-93000000D03*
X115500000Y-91100000D03*
X169500000Y-67250000D03*
X169500000Y-69150000D03*
M02*
