G04 #@! TF.FileFunction,Legend,Top*
%FSLAX46Y46*%
G04 Gerber Fmt 4.6, Leading zero omitted, Abs format (unit mm)*
G04 Created by KiCad (PCBNEW 4.0.7) date 10/01/17 15:58:34*
%MOMM*%
%LPD*%
G01*
G04 APERTURE LIST*
%ADD10C,0.100000*%
%ADD11C,0.300000*%
%ADD12C,0.250000*%
%ADD13C,0.150000*%
%ADD14C,0.120000*%
G04 APERTURE END LIST*
D10*
D11*
X122042858Y-89578571D02*
X123042858Y-91078571D01*
X123042858Y-89578571D02*
X122042858Y-91078571D01*
X123614286Y-90507143D02*
X124757143Y-90507143D01*
X125971429Y-90292857D02*
X126185715Y-90364286D01*
X126257143Y-90435714D01*
X126328572Y-90578571D01*
X126328572Y-90792857D01*
X126257143Y-90935714D01*
X126185715Y-91007143D01*
X126042857Y-91078571D01*
X125471429Y-91078571D01*
X125471429Y-89578571D01*
X125971429Y-89578571D01*
X126114286Y-89650000D01*
X126185715Y-89721429D01*
X126257143Y-89864286D01*
X126257143Y-90007143D01*
X126185715Y-90150000D01*
X126114286Y-90221429D01*
X125971429Y-90292857D01*
X125471429Y-90292857D01*
X127614286Y-90078571D02*
X127614286Y-91078571D01*
X126971429Y-90078571D02*
X126971429Y-90864286D01*
X127042857Y-91007143D01*
X127185715Y-91078571D01*
X127400000Y-91078571D01*
X127542857Y-91007143D01*
X127614286Y-90935714D01*
X128542858Y-91078571D02*
X128400000Y-91007143D01*
X128328572Y-90935714D01*
X128257143Y-90792857D01*
X128257143Y-90364286D01*
X128328572Y-90221429D01*
X128400000Y-90150000D01*
X128542858Y-90078571D01*
X128757143Y-90078571D01*
X128900000Y-90150000D01*
X128971429Y-90221429D01*
X129042858Y-90364286D01*
X129042858Y-90792857D01*
X128971429Y-90935714D01*
X128900000Y-91007143D01*
X128757143Y-91078571D01*
X128542858Y-91078571D01*
X129542858Y-90078571D02*
X129900001Y-91078571D01*
X130257143Y-90078571D02*
X129900001Y-91078571D01*
X129757143Y-91435714D01*
X129685715Y-91507143D01*
X129542858Y-91578571D01*
D12*
X149738095Y-94452381D02*
X150309524Y-94452381D01*
X150023809Y-95452381D02*
X150023809Y-94452381D01*
X150547619Y-94452381D02*
X151214286Y-95452381D01*
X151214286Y-94452381D02*
X150547619Y-95452381D01*
X147583334Y-95452381D02*
X147250000Y-94976190D01*
X147011905Y-95452381D02*
X147011905Y-94452381D01*
X147392858Y-94452381D01*
X147488096Y-94500000D01*
X147535715Y-94547619D01*
X147583334Y-94642857D01*
X147583334Y-94785714D01*
X147535715Y-94880952D01*
X147488096Y-94928571D01*
X147392858Y-94976190D01*
X147011905Y-94976190D01*
X147916667Y-94452381D02*
X148583334Y-95452381D01*
X148583334Y-94452381D02*
X147916667Y-95452381D01*
X114035714Y-69654762D02*
X114178571Y-69702381D01*
X114416667Y-69702381D01*
X114511905Y-69654762D01*
X114559524Y-69607143D01*
X114607143Y-69511905D01*
X114607143Y-69416667D01*
X114559524Y-69321429D01*
X114511905Y-69273810D01*
X114416667Y-69226190D01*
X114226190Y-69178571D01*
X114130952Y-69130952D01*
X114083333Y-69083333D01*
X114035714Y-68988095D01*
X114035714Y-68892857D01*
X114083333Y-68797619D01*
X114130952Y-68750000D01*
X114226190Y-68702381D01*
X114464286Y-68702381D01*
X114607143Y-68750000D01*
X115035714Y-69702381D02*
X115035714Y-68702381D01*
X115273809Y-68702381D01*
X115416667Y-68750000D01*
X115511905Y-68845238D01*
X115559524Y-68940476D01*
X115607143Y-69130952D01*
X115607143Y-69273810D01*
X115559524Y-69464286D01*
X115511905Y-69559524D01*
X115416667Y-69654762D01*
X115273809Y-69702381D01*
X115035714Y-69702381D01*
X115988095Y-69416667D02*
X116464286Y-69416667D01*
X115892857Y-69702381D02*
X116226190Y-68702381D01*
X116559524Y-69702381D01*
X114059524Y-72404762D02*
X114202381Y-72452381D01*
X114440477Y-72452381D01*
X114535715Y-72404762D01*
X114583334Y-72357143D01*
X114630953Y-72261905D01*
X114630953Y-72166667D01*
X114583334Y-72071429D01*
X114535715Y-72023810D01*
X114440477Y-71976190D01*
X114250000Y-71928571D01*
X114154762Y-71880952D01*
X114107143Y-71833333D01*
X114059524Y-71738095D01*
X114059524Y-71642857D01*
X114107143Y-71547619D01*
X114154762Y-71500000D01*
X114250000Y-71452381D01*
X114488096Y-71452381D01*
X114630953Y-71500000D01*
X115630953Y-72357143D02*
X115583334Y-72404762D01*
X115440477Y-72452381D01*
X115345239Y-72452381D01*
X115202381Y-72404762D01*
X115107143Y-72309524D01*
X115059524Y-72214286D01*
X115011905Y-72023810D01*
X115011905Y-71880952D01*
X115059524Y-71690476D01*
X115107143Y-71595238D01*
X115202381Y-71500000D01*
X115345239Y-71452381D01*
X115440477Y-71452381D01*
X115583334Y-71500000D01*
X115630953Y-71547619D01*
X116535715Y-72452381D02*
X116059524Y-72452381D01*
X116059524Y-71452381D01*
X114011905Y-74952381D02*
X114011905Y-73952381D01*
X114392858Y-73952381D01*
X114488096Y-74000000D01*
X114535715Y-74047619D01*
X114583334Y-74142857D01*
X114583334Y-74285714D01*
X114535715Y-74380952D01*
X114488096Y-74428571D01*
X114392858Y-74476190D01*
X114011905Y-74476190D01*
X115011905Y-74952381D02*
X115011905Y-73952381D01*
X115392858Y-73952381D01*
X115488096Y-74000000D01*
X115535715Y-74047619D01*
X115583334Y-74142857D01*
X115583334Y-74285714D01*
X115535715Y-74380952D01*
X115488096Y-74428571D01*
X115392858Y-74476190D01*
X115011905Y-74476190D01*
X115964286Y-74904762D02*
X116107143Y-74952381D01*
X116345239Y-74952381D01*
X116440477Y-74904762D01*
X116488096Y-74857143D01*
X116535715Y-74761905D01*
X116535715Y-74666667D01*
X116488096Y-74571429D01*
X116440477Y-74523810D01*
X116345239Y-74476190D01*
X116154762Y-74428571D01*
X116059524Y-74380952D01*
X116011905Y-74333333D01*
X115964286Y-74238095D01*
X115964286Y-74142857D01*
X116011905Y-74047619D01*
X116059524Y-74000000D01*
X116154762Y-73952381D01*
X116392858Y-73952381D01*
X116535715Y-74000000D01*
X114488096Y-76250000D02*
X114392858Y-76202381D01*
X114250001Y-76202381D01*
X114107143Y-76250000D01*
X114011905Y-76345238D01*
X113964286Y-76440476D01*
X113916667Y-76630952D01*
X113916667Y-76773810D01*
X113964286Y-76964286D01*
X114011905Y-77059524D01*
X114107143Y-77154762D01*
X114250001Y-77202381D01*
X114345239Y-77202381D01*
X114488096Y-77154762D01*
X114535715Y-77107143D01*
X114535715Y-76773810D01*
X114345239Y-76773810D01*
X114964286Y-77202381D02*
X114964286Y-76202381D01*
X115535715Y-77202381D01*
X115535715Y-76202381D01*
X116011905Y-77202381D02*
X116011905Y-76202381D01*
X116250000Y-76202381D01*
X116392858Y-76250000D01*
X116488096Y-76345238D01*
X116535715Y-76440476D01*
X116583334Y-76630952D01*
X116583334Y-76773810D01*
X116535715Y-76964286D01*
X116488096Y-77059524D01*
X116392858Y-77154762D01*
X116250000Y-77202381D01*
X116011905Y-77202381D01*
X113952381Y-80976190D02*
X113952381Y-80357142D01*
X114333333Y-80690476D01*
X114333333Y-80547618D01*
X114380952Y-80452380D01*
X114428571Y-80404761D01*
X114523810Y-80357142D01*
X114761905Y-80357142D01*
X114857143Y-80404761D01*
X114904762Y-80452380D01*
X114952381Y-80547618D01*
X114952381Y-80833333D01*
X114904762Y-80928571D01*
X114857143Y-80976190D01*
X114857143Y-79928571D02*
X114904762Y-79880952D01*
X114952381Y-79928571D01*
X114904762Y-79976190D01*
X114857143Y-79928571D01*
X114952381Y-79928571D01*
X113952381Y-79547619D02*
X113952381Y-78928571D01*
X114333333Y-79261905D01*
X114333333Y-79119047D01*
X114380952Y-79023809D01*
X114428571Y-78976190D01*
X114523810Y-78928571D01*
X114761905Y-78928571D01*
X114857143Y-78976190D01*
X114904762Y-79023809D01*
X114952381Y-79119047D01*
X114952381Y-79404762D01*
X114904762Y-79500000D01*
X114857143Y-79547619D01*
X113952381Y-78642857D02*
X114952381Y-78309524D01*
X113952381Y-77976190D01*
X114309524Y-81452381D02*
X113833333Y-81452381D01*
X113785714Y-81928571D01*
X113833333Y-81880952D01*
X113928571Y-81833333D01*
X114166667Y-81833333D01*
X114261905Y-81880952D01*
X114309524Y-81928571D01*
X114357143Y-82023810D01*
X114357143Y-82261905D01*
X114309524Y-82357143D01*
X114261905Y-82404762D01*
X114166667Y-82452381D01*
X113928571Y-82452381D01*
X113833333Y-82404762D01*
X113785714Y-82357143D01*
X114642857Y-81452381D02*
X114976190Y-82452381D01*
X115309524Y-81452381D01*
D13*
X139096000Y-69124000D02*
X165696000Y-69124000D01*
X165696000Y-89124000D02*
X165696000Y-69124000D01*
X139096000Y-89124000D02*
X165696000Y-89124000D01*
X139096000Y-69124000D02*
X139096000Y-89124000D01*
X167920000Y-60940000D02*
X117120000Y-60940000D01*
X119660000Y-66020000D02*
X167920000Y-66020000D01*
X167920000Y-60940000D02*
X167920000Y-66020000D01*
X117120000Y-60940000D02*
X117120000Y-63480000D01*
X116840000Y-64750000D02*
X116840000Y-66300000D01*
X117120000Y-63480000D02*
X119660000Y-63480000D01*
X119660000Y-63480000D02*
X119660000Y-66020000D01*
X116840000Y-66300000D02*
X118390000Y-66300000D01*
D14*
X111550000Y-93950000D02*
X112950000Y-93950000D01*
X112950000Y-93950000D02*
X112950000Y-91150000D01*
X111550000Y-93950000D02*
X111550000Y-91150000D01*
X173450000Y-66350000D02*
X172050000Y-66350000D01*
X172050000Y-66350000D02*
X172050000Y-69150000D01*
X173450000Y-66350000D02*
X173450000Y-69150000D01*
D13*
X160318000Y-107015000D02*
X166318000Y-107015000D01*
X160318000Y-105515000D02*
X160318000Y-107015000D01*
X166318000Y-106015000D02*
X160318000Y-105515000D01*
X166318000Y-105015000D02*
X166318000Y-106015000D01*
X160318000Y-104515000D02*
X166318000Y-105015000D01*
X160318000Y-103515000D02*
X160318000Y-104515000D01*
X166318000Y-104015000D02*
X160318000Y-103515000D01*
X166318000Y-103015000D02*
X166318000Y-104015000D01*
X160318000Y-102515000D02*
X166318000Y-103015000D01*
X160318000Y-101515000D02*
X160318000Y-102515000D01*
X166318000Y-102015000D02*
X160318000Y-101515000D01*
X166318000Y-101015000D02*
X166318000Y-102015000D01*
X160318000Y-100515000D02*
X166318000Y-101015000D01*
X160318000Y-107515000D02*
X160318000Y-99515000D01*
X166318000Y-107515000D02*
X160318000Y-107515000D01*
X166318000Y-99515000D02*
X166318000Y-107515000D01*
X166818000Y-99515000D02*
X166818000Y-92515000D01*
X159818000Y-99515000D02*
X166818000Y-99515000D01*
X159818000Y-92515000D02*
X159818000Y-99515000D01*
X166818000Y-92515000D02*
X159818000Y-92515000D01*
X181938000Y-78060000D02*
X181938000Y-72060000D01*
X180438000Y-78060000D02*
X181938000Y-78060000D01*
X180938000Y-72060000D02*
X180438000Y-78060000D01*
X179938000Y-72060000D02*
X180938000Y-72060000D01*
X179438000Y-78060000D02*
X179938000Y-72060000D01*
X178438000Y-78060000D02*
X179438000Y-78060000D01*
X178938000Y-72060000D02*
X178438000Y-78060000D01*
X177938000Y-72060000D02*
X178938000Y-72060000D01*
X177438000Y-78060000D02*
X177938000Y-72060000D01*
X176438000Y-78060000D02*
X177438000Y-78060000D01*
X176938000Y-72060000D02*
X176438000Y-78060000D01*
X175938000Y-72060000D02*
X176938000Y-72060000D01*
X175438000Y-78060000D02*
X175938000Y-72060000D01*
X182438000Y-78060000D02*
X174438000Y-78060000D01*
X182438000Y-72060000D02*
X182438000Y-78060000D01*
X174438000Y-72060000D02*
X182438000Y-72060000D01*
X174438000Y-71560000D02*
X167438000Y-71560000D01*
X174438000Y-78560000D02*
X174438000Y-71560000D01*
X167438000Y-78560000D02*
X174438000Y-78560000D01*
X167438000Y-71560000D02*
X167438000Y-78560000D01*
D14*
X131014615Y-85084160D02*
G75*
G02X130100000Y-84700000I-124615J984160D01*
G01*
X120185385Y-85084160D02*
G75*
G03X121100000Y-84700000I124615J984160D01*
G01*
X130090661Y-84688671D02*
G75*
G03X121100000Y-84700000I-4490661J-3711329D01*
G01*
X132350000Y-83550000D02*
G75*
G02X130900000Y-85100000I-1500000J-50000D01*
G01*
X118850000Y-83550000D02*
G75*
G03X120300000Y-85100000I1500000J-50000D01*
G01*
X132350000Y-81500000D02*
X132350000Y-83600000D01*
X118850000Y-81500000D02*
X118850000Y-83600000D01*
X118850000Y-77500000D02*
X118850000Y-76050000D01*
X118850000Y-76050000D02*
X121450000Y-73450000D01*
X121450000Y-73450000D02*
X121450000Y-72650000D01*
X121450000Y-72650000D02*
X129750000Y-72650000D01*
X129750000Y-72650000D02*
X129750000Y-73450000D01*
X129750000Y-73450000D02*
X132350000Y-76050000D01*
X132350000Y-76050000D02*
X132350000Y-77500000D01*
X119770000Y-99230000D02*
X119770000Y-96570000D01*
X117170000Y-99230000D02*
X119770000Y-99230000D01*
X117170000Y-96570000D02*
X119770000Y-96570000D01*
X117170000Y-99230000D02*
X117170000Y-96570000D01*
X115900000Y-99230000D02*
X114570000Y-99230000D01*
X114570000Y-99230000D02*
X114570000Y-97900000D01*
X113230000Y-67870000D02*
X110570000Y-67870000D01*
X113230000Y-80630000D02*
X113230000Y-67870000D01*
X110570000Y-80630000D02*
X110570000Y-67870000D01*
X113230000Y-80630000D02*
X110570000Y-80630000D01*
X113230000Y-81900000D02*
X113230000Y-83230000D01*
X113230000Y-83230000D02*
X111900000Y-83230000D01*
X151770000Y-99230000D02*
X151770000Y-96570000D01*
X149170000Y-99230000D02*
X151770000Y-99230000D01*
X149170000Y-96570000D02*
X151770000Y-96570000D01*
X149170000Y-99230000D02*
X149170000Y-96570000D01*
X147900000Y-99230000D02*
X146570000Y-99230000D01*
X146570000Y-99230000D02*
X146570000Y-97900000D01*
X127770000Y-99230000D02*
X127770000Y-96570000D01*
X125170000Y-99230000D02*
X127770000Y-99230000D01*
X125170000Y-96570000D02*
X127770000Y-96570000D01*
X125170000Y-99230000D02*
X125170000Y-96570000D01*
X123900000Y-99230000D02*
X122570000Y-99230000D01*
X122570000Y-99230000D02*
X122570000Y-97900000D01*
X135770000Y-99230000D02*
X135770000Y-96570000D01*
X133170000Y-99230000D02*
X135770000Y-99230000D01*
X133170000Y-96570000D02*
X135770000Y-96570000D01*
X133170000Y-99230000D02*
X133170000Y-96570000D01*
X131900000Y-99230000D02*
X130570000Y-99230000D01*
X130570000Y-99230000D02*
X130570000Y-97900000D01*
X143770000Y-99230000D02*
X143770000Y-96570000D01*
X141170000Y-99230000D02*
X143770000Y-99230000D01*
X141170000Y-96570000D02*
X143770000Y-96570000D01*
X141170000Y-99230000D02*
X141170000Y-96570000D01*
X139900000Y-99230000D02*
X138570000Y-99230000D01*
X138570000Y-99230000D02*
X138570000Y-97900000D01*
X116380000Y-91450000D02*
X116380000Y-92650000D01*
X114620000Y-92650000D02*
X114620000Y-91450000D01*
X168620000Y-68800000D02*
X168620000Y-67600000D01*
X170380000Y-67600000D02*
X170380000Y-68800000D01*
D13*
X110252381Y-93626190D02*
X110252381Y-93007142D01*
X110633333Y-93340476D01*
X110633333Y-93197618D01*
X110680952Y-93102380D01*
X110728571Y-93054761D01*
X110823810Y-93007142D01*
X111061905Y-93007142D01*
X111157143Y-93054761D01*
X111204762Y-93102380D01*
X111252381Y-93197618D01*
X111252381Y-93483333D01*
X111204762Y-93578571D01*
X111157143Y-93626190D01*
X111157143Y-92578571D02*
X111204762Y-92530952D01*
X111252381Y-92578571D01*
X111204762Y-92626190D01*
X111157143Y-92578571D01*
X111252381Y-92578571D01*
X110252381Y-92197619D02*
X110252381Y-91578571D01*
X110633333Y-91911905D01*
X110633333Y-91769047D01*
X110680952Y-91673809D01*
X110728571Y-91626190D01*
X110823810Y-91578571D01*
X111061905Y-91578571D01*
X111157143Y-91626190D01*
X111204762Y-91673809D01*
X111252381Y-91769047D01*
X111252381Y-92054762D01*
X111204762Y-92150000D01*
X111157143Y-92197619D01*
X110252381Y-91292857D02*
X111252381Y-90959524D01*
X110252381Y-90626190D01*
X174652381Y-68792857D02*
X174652381Y-69269048D01*
X173652381Y-69269048D01*
X174652381Y-68459524D02*
X173652381Y-68459524D01*
X174652381Y-67888095D01*
X173652381Y-67888095D01*
X174366667Y-67459524D02*
X174366667Y-66983333D01*
X174652381Y-67554762D02*
X173652381Y-67221429D01*
X174652381Y-66888095D01*
X157770381Y-98181667D02*
X157770381Y-97610238D01*
X158770381Y-97895953D02*
X157770381Y-97895953D01*
X158246571Y-97276905D02*
X158246571Y-96943571D01*
X158770381Y-96800714D02*
X158770381Y-97276905D01*
X157770381Y-97276905D01*
X157770381Y-96800714D01*
X158770381Y-95895952D02*
X158770381Y-96372143D01*
X157770381Y-96372143D01*
X158246571Y-95562619D02*
X158246571Y-95229285D01*
X158770381Y-95086428D02*
X158770381Y-95562619D01*
X157770381Y-95562619D01*
X157770381Y-95086428D01*
X158770381Y-94657857D02*
X157770381Y-94657857D01*
X158484667Y-94324523D01*
X157770381Y-93991190D01*
X158770381Y-93991190D01*
X170223715Y-79560000D02*
X170128477Y-79512381D01*
X169985620Y-79512381D01*
X169842762Y-79560000D01*
X169747524Y-79655238D01*
X169699905Y-79750476D01*
X169652286Y-79940952D01*
X169652286Y-80083810D01*
X169699905Y-80274286D01*
X169747524Y-80369524D01*
X169842762Y-80464762D01*
X169985620Y-80512381D01*
X170080858Y-80512381D01*
X170223715Y-80464762D01*
X170271334Y-80417143D01*
X170271334Y-80083810D01*
X170080858Y-80083810D01*
X170699905Y-80512381D02*
X170699905Y-79512381D01*
X171080858Y-79512381D01*
X171176096Y-79560000D01*
X171223715Y-79607619D01*
X171271334Y-79702857D01*
X171271334Y-79845714D01*
X171223715Y-79940952D01*
X171176096Y-79988571D01*
X171080858Y-80036190D01*
X170699905Y-80036190D01*
X171652286Y-80464762D02*
X171795143Y-80512381D01*
X172033239Y-80512381D01*
X172128477Y-80464762D01*
X172176096Y-80417143D01*
X172223715Y-80321905D01*
X172223715Y-80226667D01*
X172176096Y-80131429D01*
X172128477Y-80083810D01*
X172033239Y-80036190D01*
X171842762Y-79988571D01*
X171747524Y-79940952D01*
X171699905Y-79893333D01*
X171652286Y-79798095D01*
X171652286Y-79702857D01*
X171699905Y-79607619D01*
X171747524Y-79560000D01*
X171842762Y-79512381D01*
X172080858Y-79512381D01*
X172223715Y-79560000D01*
X124861905Y-71428571D02*
X125004762Y-71476190D01*
X125052381Y-71523810D01*
X125100000Y-71619048D01*
X125100000Y-71761905D01*
X125052381Y-71857143D01*
X125004762Y-71904762D01*
X124909524Y-71952381D01*
X124528571Y-71952381D01*
X124528571Y-70952381D01*
X124861905Y-70952381D01*
X124957143Y-71000000D01*
X125004762Y-71047619D01*
X125052381Y-71142857D01*
X125052381Y-71238095D01*
X125004762Y-71333333D01*
X124957143Y-71380952D01*
X124861905Y-71428571D01*
X124528571Y-71428571D01*
X125480952Y-71666667D02*
X125957143Y-71666667D01*
X125385714Y-71952381D02*
X125719047Y-70952381D01*
X126052381Y-71952381D01*
X126242857Y-70952381D02*
X126814286Y-70952381D01*
X126528571Y-71952381D02*
X126528571Y-70952381D01*
X114022381Y-99630952D02*
X113022381Y-99630952D01*
X113022381Y-99249999D01*
X113070000Y-99154761D01*
X113117619Y-99107142D01*
X113212857Y-99059523D01*
X113355714Y-99059523D01*
X113450952Y-99107142D01*
X113498571Y-99154761D01*
X113546190Y-99249999D01*
X113546190Y-99630952D01*
X113022381Y-98726190D02*
X114022381Y-98488095D01*
X113308095Y-98297618D01*
X114022381Y-98107142D01*
X113022381Y-97869047D01*
X114022381Y-97488095D02*
X113022381Y-97488095D01*
X113736667Y-97154761D01*
X113022381Y-96821428D01*
X114022381Y-96821428D01*
X113022381Y-96154762D02*
X113022381Y-96059523D01*
X113070000Y-95964285D01*
X113117619Y-95916666D01*
X113212857Y-95869047D01*
X113403333Y-95821428D01*
X113641429Y-95821428D01*
X113831905Y-95869047D01*
X113927143Y-95916666D01*
X113974762Y-95964285D01*
X114022381Y-96059523D01*
X114022381Y-96154762D01*
X113974762Y-96250000D01*
X113927143Y-96297619D01*
X113831905Y-96345238D01*
X113641429Y-96392857D01*
X113403333Y-96392857D01*
X113212857Y-96345238D01*
X113117619Y-96297619D01*
X113070000Y-96250000D01*
X113022381Y-96154762D01*
X145498571Y-99090475D02*
X145546190Y-98947618D01*
X145593810Y-98899999D01*
X145689048Y-98852380D01*
X145831905Y-98852380D01*
X145927143Y-98899999D01*
X145974762Y-98947618D01*
X146022381Y-99042856D01*
X146022381Y-99423809D01*
X145022381Y-99423809D01*
X145022381Y-99090475D01*
X145070000Y-98995237D01*
X145117619Y-98947618D01*
X145212857Y-98899999D01*
X145308095Y-98899999D01*
X145403333Y-98947618D01*
X145450952Y-98995237D01*
X145498571Y-99090475D01*
X145498571Y-99423809D01*
X146022381Y-98423809D02*
X145022381Y-98423809D01*
X146022381Y-97947619D02*
X145022381Y-97947619D01*
X146022381Y-97376190D01*
X145022381Y-97376190D01*
X146022381Y-96328571D02*
X145546190Y-96661905D01*
X146022381Y-96900000D02*
X145022381Y-96900000D01*
X145022381Y-96519047D01*
X145070000Y-96423809D01*
X145117619Y-96376190D01*
X145212857Y-96328571D01*
X145355714Y-96328571D01*
X145450952Y-96376190D01*
X145498571Y-96423809D01*
X145546190Y-96519047D01*
X145546190Y-96900000D01*
X122022381Y-99630952D02*
X121022381Y-99630952D01*
X121022381Y-99249999D01*
X121070000Y-99154761D01*
X121117619Y-99107142D01*
X121212857Y-99059523D01*
X121355714Y-99059523D01*
X121450952Y-99107142D01*
X121498571Y-99154761D01*
X121546190Y-99249999D01*
X121546190Y-99630952D01*
X121022381Y-98726190D02*
X122022381Y-98488095D01*
X121308095Y-98297618D01*
X122022381Y-98107142D01*
X121022381Y-97869047D01*
X122022381Y-97488095D02*
X121022381Y-97488095D01*
X121736667Y-97154761D01*
X121022381Y-96821428D01*
X122022381Y-96821428D01*
X122022381Y-95821428D02*
X122022381Y-96392857D01*
X122022381Y-96107143D02*
X121022381Y-96107143D01*
X121165238Y-96202381D01*
X121260476Y-96297619D01*
X121308095Y-96392857D01*
X130022381Y-99630952D02*
X129022381Y-99630952D01*
X129022381Y-99249999D01*
X129070000Y-99154761D01*
X129117619Y-99107142D01*
X129212857Y-99059523D01*
X129355714Y-99059523D01*
X129450952Y-99107142D01*
X129498571Y-99154761D01*
X129546190Y-99249999D01*
X129546190Y-99630952D01*
X129022381Y-98726190D02*
X130022381Y-98488095D01*
X129308095Y-98297618D01*
X130022381Y-98107142D01*
X129022381Y-97869047D01*
X130022381Y-97488095D02*
X129022381Y-97488095D01*
X129736667Y-97154761D01*
X129022381Y-96821428D01*
X130022381Y-96821428D01*
X129117619Y-96392857D02*
X129070000Y-96345238D01*
X129022381Y-96250000D01*
X129022381Y-96011904D01*
X129070000Y-95916666D01*
X129117619Y-95869047D01*
X129212857Y-95821428D01*
X129308095Y-95821428D01*
X129450952Y-95869047D01*
X130022381Y-96440476D01*
X130022381Y-95821428D01*
X138022381Y-99630952D02*
X137022381Y-99630952D01*
X137022381Y-99249999D01*
X137070000Y-99154761D01*
X137117619Y-99107142D01*
X137212857Y-99059523D01*
X137355714Y-99059523D01*
X137450952Y-99107142D01*
X137498571Y-99154761D01*
X137546190Y-99249999D01*
X137546190Y-99630952D01*
X137022381Y-98726190D02*
X138022381Y-98488095D01*
X137308095Y-98297618D01*
X138022381Y-98107142D01*
X137022381Y-97869047D01*
X138022381Y-97488095D02*
X137022381Y-97488095D01*
X137736667Y-97154761D01*
X137022381Y-96821428D01*
X138022381Y-96821428D01*
X137022381Y-96440476D02*
X137022381Y-95821428D01*
X137403333Y-96154762D01*
X137403333Y-96011904D01*
X137450952Y-95916666D01*
X137498571Y-95869047D01*
X137593810Y-95821428D01*
X137831905Y-95821428D01*
X137927143Y-95869047D01*
X137974762Y-95916666D01*
X138022381Y-96011904D01*
X138022381Y-96297619D01*
X137974762Y-96392857D01*
X137927143Y-96440476D01*
M02*
